<?xml version="1.0" encoding="UTF-8" standalone="no"?>
<svg id="Calque_2" data-name="Calque 2" viewBox="0 0 880.27 327.57" version="1.1" sodipodi:docname="logo_2.svg" inkscape:version="1.2.2 (b0a8486541, 2022-12-01)" xmlns:inkscape="http://www.inkscape.org/namespaces/inkscape" xmlns:sodipodi="http://sodipodi.sourceforge.net/DTD/sodipodi-0.dtd" xmlns="http://www.w3.org/2000/svg" xmlns:svg="http://www.w3.org/2000/svg">
  <sodipodi:namedview id="namedview263" pagecolor="#ffffff" bordercolor="#666666" borderopacity="1.0" inkscape:showpageshadow="2" inkscape:pageopacity="0.0" inkscape:pagecheckerboard="0" inkscape:deskcolor="#d1d1d1" showgrid="false" inkscape:zoom="3.566296" inkscape:cx="453.69201" inkscape:cy="141.6035" inkscape:window-width="1920" inkscape:window-height="1020" inkscape:window-x="0" inkscape:window-y="32" inkscape:window-maximized="1" inkscape:current-layer="Groupe_de_calques" showguides="true"/>
  <defs id="defs4">
    <style id="style2">
      .cls-1 {
        fill: #cd8b4f;
      }

      .cls-2 {
        fill: #efac6f;
      }

      .cls-3 {
        fill: #bb793f;
      }

      .cls-4 {
        fill: #be7b42;
      }

      .cls-5 {
        fill: #ff2236;
      }

      .cls-6 {
        fill: #fefefe;
      }

      .cls-7 {
        fill: #a4272e;
      }

      .cls-8 {
        fill: #e8a568;
      }

      .cls-9 {
        fill: #dbb899;
      }

      .cls-10 {
        fill: #c9864b;
      }
    </style>
  </defs>
  <g id="Groupe_de_calques" data-name="Groupe de calques">
    <g id="Calque_vectoriel_Calque_de_pixel_Image" data-name="Calque vectoriel + Calque de pixel Image" style="fill:#c53131;fill-opacity:1">
      <path class="cls-6" d="M0,196.12c7.28-22.74,7.47-47.04,11-70.55s9.74-46.48,12.45-69.92c.34-2.95-1.36-7.04,2.7-7.67,4.94-.76,14.97,5.91,13.7,12.02-2.53,28.09-7.21,55.96-9.85,84.02-1.18,12.61-1.77,25.28-2.73,37.9,7.85-3.26,15.36-7.46,22.3-12.33,5.78-4.06,5.37-7.03,13.71-4.86,6.18,1.61,18.16,9.12,17.92,16.4-.12,3.73-5.04,3.46-7.55,4.35-6.96,2.48-21.4,13.04-28.23,17.59-4.33,2.89-14.85,11.81-19.1,12.54-9.06,1.54-23.4-6.73-26.32-15.69v-3.82Z" id="path6" style="fill:#c53131;fill-opacity:1"/>
      <path class="cls-6" d="M147,178.3c3.87-.61,9.82-3.21,13.64-2.52,4.52.83,14.66,9.56,10.01,14.44l-21.47,2.26c2.57,9.8,2.95,21.82,6.03,31.33,1.82,5.61,7.06,6.7,5.05,14.39-1.78,6.79-8.59,4.15-13.1,1.84-7.83-4-9.94-9.78-11.46-17.99s-2.31-17.69-3.98-26.3l-21.17,4.46c-1.21,4.42-2.42,8.94-3.91,13.28-1.57,4.56-3.51,11.11-5.43,15.3-1.44,3.15-4.04,2.48-6.8,1.81-5.99-1.46-13.36-7.52-12.77-14.26l5.92-14.28c-9.79-6.85-6.75-11.91,4.39-12.63,6.9-25.51,16.93-50.72,22.68-76.48.64-2.87,2.04-14.06,3.18-15.37,3.97-4.54,13.64,1.63,16.84,4.96,4.53,4.71,5.56,9.17,6.32,15.49,1.42,11.71,1.53,23.7,2.73,35.45.85,8.29,2.07,16.59,3.27,24.82ZM129,182.11l-4.91-25.62-8.73,28.36,13.64-2.73Z" id="path8" style="fill:#c53131;fill-opacity:1"/>
      <path class="cls-6" d="M217.09,159.85c-.09-.35-2.16-2.79-2.66-3.89-1.94-4.3-1.78-7.69,2.67-9.86v-21.59c-3.79-2.08-10.95-7.33-10.95-12.11s7.53-8.13,10.29-11.01c.11-4.14.21-8.32.13-12.47-.05-2.62-2.04-7.03,1.3-8.49,5.52-2.41,15.53,7.83,15.05,13.69,14.26-4.73,28.49-12.02,42.17-1.54,20.22,15.49,4.16,37.69-9.44,50.91,10.15,3.61,20.46,7.55,27.54,16.08,17.69,21.33.91,49.28-19.2,61.54-11.2,6.83-26.41,11.3-39.44,8.29-.37,3.58,3.85,14.66-.52,16.12-6.29,2.11-19.32-8.04-18.97-14.67.13-2.44,2.47-5.61,1.39-8.73-.16-.47-6.13-5.37-7.24-6.94-3.5-4.97-3.5-11.29,4.21-9.66,1.32.28,2.27,1.55,3.67,1.51v-47.18ZM233.46,141.57c14.5-9.19,29.21-22.12,33.81-39.27-12.07,2.31-23.58,6.77-34.09,13.08l.29,26.19ZM234,215.21c18.88-.17,41.44-15.08,48.27-32.74,1.81-4.69,3.67-15.08-.24-18.83-8.09-7.76-39.27-5.24-48.46,2.04l.43,49.53Z" id="path10" style="fill:#c53131;fill-opacity:1"/>
      <path class="cls-6" d="M363.82,179.75c.4.5,10.61-4.46,11.98-4.69,5.43-.9,19.58,9.46,14.62,15.78l-24.43,5.28c2.38,14.8,4.94,29.67,9.11,44.07.38,1.3,1.4,2.33,1.67,3.78,1.73,9.36-7.59,5.9-12.43,3.16-11.42-6.48-9.69-17.05-11.53-28.29-1-6.12-2.5-12.18-3.19-18.36l-20.46,4.9c-2.95,7.27-5.45,15.16-8.89,22.2-1.25,2.55-2.41,6.04-5.81,6.09-4.76.07-13.74-7.82-12.71-13.14,1.29-4.17,8.46-14.52,8.51-18.24.02-1.39-5.06-4.46-4.04-7.81,1.07-3.52,6.96-1.41,8.39-4.2,6.08-20.61,12.16-41.22,18.39-61.79,2.38-7.87,1.77-17.3,13.54-10.26,8.23,4.92,11.09,17.68,12.74,26.53,2.16,11.56,2.58,23.42,4.54,35.01ZM343.63,157.39c-1.51-.26-.92.31-1.23,1.19-3.29,9.36-4.95,19.37-8.04,28.8l12.54-2.73-3.27-27.26Z" id="path12" style="fill:#c53131;fill-opacity:1"/>
      <path class="cls-6" d="M596,253.94c-2.55-.35-7.54-2.68-9.77-4.14-10.92-7.13-8.36-14.3-9.94-25.51-.85-5.97-2.07-11.88-3.21-17.79l-30.52,5.17-7.05,23.91c-5.73,3.74-14.62-4.08-14.01-10.01.38-3.69,2.72-8.78,3.6-12.53-4.32.84-17.27-7.61-12.85-12.04,2.44-2.44,13.05.21,16.71-2.51,4.28-14.38,8.42-28.82,12.9-43.15,3.17-10.13,6.98-20.12,10.13-30.24,2.05-6.57.51-15.19,10.73-11.61,6.21,2.18,10.7,8.23,12.31,14.42,2.41,9.33,3.51,20.38,5.42,30.03s4.06,19.8,6.37,29.63c.76,1.28,2.6.87,4.04,1.41,3.93,1.48,13.33,7.72,13.27,12.31-.01,1.08-1.49,2.99-2.4,2.99h-9.27c-.07,0-1.25.56-1.29.63-.85,1.41,5.84,28.2,6.74,32.11.81,3.54,4.43,12.56,2.51,15.45-.55.82-2.16.54-2.78,1.45-.53-.04-1.11.07-1.64,0ZM569.82,191.75l-8.45-36.54c-6.04,12.86-10.23,26.71-13.91,40.36l22.36-3.82Z" id="path14" style="fill:#c53131;fill-opacity:1"/>
      <path class="cls-6" d="M670.92,187.93l-.26-55.61c7.91-5.45,22.86,6.03,23.71,14.43.25,2.52-.53,4.36-.57,6.53-.36,20.5,2.12,40.69,2.78,61.09.16,5.01.73,16.25-.15,20.63-1.4,6.98-11.72,3.14-15.86.84-9.75-5.42-11.8-15.48-16.27-24.64-6.49-13.27-13.75-26.15-19.82-39.63l-16.1-31.08.43,65.61c-2.43,3.42-8.28.66-10.98-1.35s-4.17-4.33-4.73-7.81c-1.69-10.52-.85-24.85-1.64-36-1.23-17.28-3.83-34.54-4.9-51.83-.21-3.37-.87-9.51-.55-12.54.16-1.52.54-3.21,1.97-4.03,5.89-3.38,18.18,5.49,21.61,10.45,13.77,28.32,26.5,57.16,41.34,84.94Z" id="path16" style="fill:#c53131;fill-opacity:1"/>
      <path class="cls-6" d="M880.27,162.39c-5.18,3.25-11.72,1.01-17.18,1.04-3.97.02-10.4,1.24-14.65,1.76-18.22,2.23-36.29,5.86-54.29,9.25l-1.14,31.58c13.83-5.74,28.01-10.78,41.65-16.98,5.71-2.6,7.73-5.67,14.98-3.91,5.65,1.37,20,11.4,15.83,18.36-.7,1.17-10.96,3.86-13.28,4.71-18.24,6.67-35.92,15.43-53.18,24.27-3.14,1.61-6.19,4.65-10.08,4.64-6.41-.01-17.39-7.54-19.77-13.5-1.67-4.18,1.02-14.98,1.49-20.04.77-8.26.78-16.64,2.18-24.81-1.82.24-3.2.73-5.13.5-4.09-.49-13.34-7.37-10.18-11.73,1.88-2.59,11.87-2.46,14.94-3.61.43-.16.75-.29.85-.78,1.08-13.68.76-27.73,2.89-41.29.5-3.22,1.86-13.28,5.65-13.99,2.08-.39,6.9-.11,9.25,0,9.93.43,20.7,2.69,30.54,2.76,4.07.03,8.05-1.13,12.42-.45,8.89,1.38,22.99,16.15,6.67,16.28-9.77.07-21.09-2.35-31.09-2.77-3.5-.15-7.06.02-10.55.07l-3.89,35.38,67.93-14.74c7.37,1.37,13.92,6.38,17.16,13.11v4.91Z" id="path18" style="fill:#c53131;fill-opacity:1"/>
      <path class="cls-6" d="M741.34,104.01c-.04,4.42-.19,8.89-.09,13.31.55,25.51,1.24,56.03,4.46,81.18.52,4.11,4.32,17.97,3.51,20.55-1.85,5.86-12.29.69-15.53-1.44-12.92-8.45-7.14-19.85-6.57-32.66,1.14-25.53-1.42-51.62-.57-77.2-9.55,2.43-19.14,4.92-28.8,6.92-5.03,1.04-17.21,4.16-21.61,3.95-5.11-.24-19.67-10.69-10.93-14.13,6.52-2.56,18.87-4.04,26.34-5.84,25.95-6.25,54.21-12.67,79.47-20.89,3.47-1.13,12.16-5.27,14.72-5.49,5.77-.51,19.44,7.45,19.75,13.48.27,5.14-5.38,4.15-8.23,4.62-18.72,3.08-37.5,9.1-55.9,13.64Z" id="path20" style="fill:#c53131;fill-opacity:1"/>
    </g>
    <path class="cls-2" d="m 422.18,91.94 c 0,-1.46 -0.38,-6.78 0.51,-7.4 0.98,-0.68 15.04,-0.43 17.48,-0.78 1,5.49 0.28,11.08 0.56,16.63 1.92,38.5 4.09,76.67 6,115.09 0.37,7.34 2.12,16.08 1.09,23.19 0.09,0.46 0.06,0.92 -0.29,1.15 -4.82,3.18 -13.81,5.63 -17.05,-0.84 -2.15,-47.72 -4.68,-95.29 -7.59,-142.72 l 0.38,-3.77 c -0.74,0 -0.52,-1.24 -0.29,-1.8 0.04,-0.09 0.08,1.78 -0.8,1.25 z" id="path23"/>
    <path class="cls-3" d="m 423.27,92.48 c 1.3,14.86 2.52,29.53 3.3,44.43 1.75,33.81 2.97,67.62 4.94,101.45 -0.05,2.47 4.22,3.57 6.22,3.62 3.18,0.08 7.22,-1.99 10.09,-3.32 -0.02,0.16 0.71,0.75 0.29,1.61 -1.41,2.95 -6.61,5.36 -9.83,5.51 -3.91,0.18 -10.14,-2.21 -11.08,-6.41 -1.15,-5.08 -0.42,-12.54 -0.66,-17.88 -1.71,-38.23 -3.76,-77.5 -4.36,-115.91 0.45,-2.52 0.4,-5.11 0,-7.64 0.03,-0.54 -0.05,-1.1 0,-1.64 -0.08,-1.84 0.28,-3.11 1.09,-3.82 z" id="path29"/>
    <path class="cls-10" d="m 485.45,99.03 c 0,-0.07 -0.54,-0.62 -0.57,-1.32 -0.13,-2.9 0.6,-6.39 -0.52,-9.04 0.19,-1.77 -0.26,-3.67 0.55,-5.45 0,0.07 0.55,0.13 0.57,1.32 0.09,4.83 -0.11,9.67 -0.02,14.49 z" id="path31"/>
    <path class="cls-9" d="m 422.18,105.57 c -0.04,-2.5 -0.13,-5.15 0,-7.64 0.92,1.94 0.91,5.81 0,7.64 z" id="path33"/>
    <path class="cls-1" d="m 423.27,92.48 c -0.38,0.73 -1.03,3.15 -1.09,3.82 0,-1.45 0,-2.91 0,-4.36 0.75,-0.6 0.18,-1.85 1.09,-1.63 0.06,0.72 -0.06,1.46 0,2.18 z" id="path35"/>
    <path class="cls-8" d="m 428.18,129.57 c -1.29,-0.36 -1.04,-2.76 -1.08,-3.82 1.53,0.53 1.06,2.48 1.08,3.82 z" id="path37"/>
    <g id="g1896" transform="translate(0,8)">
      <g id="g2364" transform="rotate(-4.4648119,463.72344,82.897798)">
        <path class="cls-2" d="m 484.91,83.21 c -0.05,-1.67 -0.38,-7.51 1.44,-8.13 l 17.11,1.59 c -2.02,19.48 -3.25,39.08 -4.92,58.63 -2.67,31.35 -4.93,63.24 -8.23,94.33 -0.07,0.68 -0.33,1.29 -0.49,1.94 -2.21,3.57 -15.1,2.66 -14.75,-2.4 2.75,-40.5 5.67,-82.05 9.09,-121.7 -0.22,-3.15 0.21,-5.97 1.3,-8.44 -0.29,-5.3 -0.47,-10.58 -0.55,-15.82 z" id="path25"/>
        <path class="cls-3" d="m 485.45,99.03 c 0.27,8.31 -1.03,15.14 -1.63,23.19 -2.66,35.63 -5,71.29 -7.68,106.92 0.46,4.61 10.39,3.63 13.68,2.44 -2.02,8.02 -18.13,5.98 -18.57,-2.44 -0.34,-6.49 1.62,-15.18 2.2,-21.84 3.47,-39.54 6.63,-79.28 10.91,-118.63 l 0.63,0.17 c 0.09,3.43 0.24,6.82 0.46,10.19 z" id="path27"/>
        <g id="g1816" transform="matrix(1,0,0,0.91883444,0,6.0817355)">
          <path class="cls-5" d="m 489.03,39.96 v 0 c 0,0 0,0 0,0 0,0 0,0 0,0 z" id="path42"/>
          <path class="cls-5" d="m 489.51,37.63 c 0,0 0,0 0,0 0,0 0,0 0,0 z" id="path46"/>
          <path class="cls-5" d="m 466.72,26.6 c 0,0 -0.01,0.01 -0.02,0.02 0,0 0,-0.01 0.02,-0.02 z" id="path48"/>
          <path class="cls-5" d="m 466.73,26.58 c 0,0 -0.01,0.01 -0.02,0.02 0,0 0.01,-0.01 0.02,-0.02 z" id="path50"/>
          <path class="cls-5" d="m 466.74,26.57 c 0,0 0,0 0,0 0,0 0,0 0,0 0,0 0,0 0,0 z" id="path52"/>
          <path class="cls-5" d="m 466.75,26.55 c 0,0 0,0.01 -0.01,0.02 0,0 0,-0.01 0.01,-0.02 z" id="path54"/>
          <path class="cls-5" d="m 476.05,17.48 c 0,0 0,0 0,0 z" id="path56"/>
          <path class="cls-5" d="m 475.98,17.55 c 0,0 0,0 0,0 0,0 0,0 0,0 z" id="path58"/>
          <path class="cls-5" d="m 475.42,18.11 c 0,0 -0.02,0.02 -0.03,0.04 0.01,-0.01 0.02,-0.02 0.03,-0.04 z" id="path60"/>
          <path class="cls-5" d="m 475.96,17.57 c 0,0 0,0 0,0 0,0 0,0 0,0 z" id="path62"/>
          <path class="cls-5" d="m 479.19,14.32 v 0 c 0,0 0,0 0,0 z" id="path64"/>
          <path class="cls-5" d="M 475.94,17.59 Z" id="path66"/>
          <path class="cls-5" d="m 494.09,65.75 c -0.75,-0.06 -1.5,-0.18 -2.27,-0.37 -7.21,-1.18 -10.31,-6.39 -13.17,-12.49 -1.08,-2.11 -2.22,-4.14 -2.91,-6.39 0.09,0.16 0.19,0.4 0.31,0.58 2.07,3.4 5.09,5.98 8.19,8.34 2.46,1.91 5.02,3.68 7.8,5.11 3.34,1.63 7.04,3.12 10.79,2.5 -2.33,1.85 -4.93,2.75 -7.7,2.75 -0.34,0 -0.68,-0.01 -1.02,-0.04 z" id="path72"/>
          <path class="cls-5" d="m 497.2,74.04 c -0.32,-0.03 -0.64,-0.06 -0.96,-0.12 -3.71,-0.85 -7.47,-2.08 -10.59,-4.33 0,-0.02 -0.46,-0.35 -0.2,-0.39 0.03,0 -0.04,0.04 -0.04,0.05 v 0 c 4.46,2.23 9.53,2.07 14.37,1.99 2.68,-0.36 5.42,0.05 8.01,-0.68 -1.1,1.39 -3.02,1.87 -4.62,2.55 -1.61,0.61 -3.3,0.96 -5.01,0.96 -0.32,0 -0.64,-0.01 -0.96,-0.04 z" id="path74"/>
          <path class="cls-5" d="m 490.95,0 v 0 c 0,0 0,0 -0.01,0 0,0 0,0 0,0 z" id="path78"/>
          <path class="cls-5" d="m 500.57,5.84 c 0,0 0,0.01 0,0.02 0,0 0,-0.01 0,-0.02 z" id="path80"/>
          <path class="cls-5" d="m 499.27,3.69 c 0,0 0,0 0,0 0,0 0,0 0,0 z" id="path82"/>
          <path class="cls-5" d="m 490.16,15.16 c 0,0 0,0 0.01,0 0,0 0,0 -0.01,0 z" id="path84"/>
          <path class="cls-5" d="m 490.15,15.16 v 0 c 0,0 0,0 0,0 z" id="path86"/>
          <path class="cls-5" d="m 488.31,14.45 c 0,0 0.01,0 0.02,0 0,0 -0.01,0 -0.02,0 z" id="path90"/>
          <path class="cls-5" d="m 501.93,8.41 c 0,0 0,0 0,0 0,0 0,0 0,0 z" id="path92"/>
          <path class="cls-5" d="M 501.97,8.39 Z" id="path94"/>
          <path class="cls-5" d="m 501.98,8.39 c 0,0 0,0 0,0 0,0 0,0 0,0 z" id="path96"/>
          <path class="cls-5" d="m 524.28,29.67 v 0 c 0,0 0,0 0,0 z" id="path102"/>
          <path class="cls-5" d="m 524.27,29.67 c 0,0 0,0 0,0 0,0 0,0 0,0 0,0 0,0 0,0 z" id="path104"/>
          <path class="cls-5" d="m 524.26,29.66 c 0,0 0,0 0,0 0,0 0,0 0,0 z" id="path106"/>
          <path class="cls-5" d="m 524.3,29.7 c 0,0 0,0 0,0 0,0 0,0 0,0 z" id="path108"/>
          <path class="cls-5" d="m 524.37,29.75 c 0,0 0,0 0,0 0,0 0,0 0,0 z" id="path110"/>
          <path class="cls-5" d="m 524.37,29.75 v 0 c 0,0 0,0 0,0 z" id="path112"/>
          <path class="cls-5" d="m 524.3,29.69 c 0,0 0,0 0,0 q 0,0 0,0 z" id="path114"/>
          <path class="cls-5" d="m 524.38,29.75 v 0 c 0,0 0,0 0,0 z" id="path116"/>
          <path class="cls-5" d="m 526.18,34.59 c 0,0 0,0.03 0,0.04 0,-0.01 0,-0.03 0,-0.04 z" id="path118"/>
          <path class="cls-5" d="m 525.91,35.58 v 0 c 0,0 0,0 0,0 z" id="path120"/>
          <path class="cls-5" d="M 525.91,35.58 Z" id="path122"/>
          <path class="cls-5" d="m 525.9,35.58 c 0,0 0,0 0,0.01 q 0,0 0,0 c 0,0 0,-0.01 0,-0.01 z" id="path124"/>
          <path class="cls-5" d="m 524.77,37.32 c 0,0 0,0 0,0 0,0 0,0 0,0 z" id="path128"/>
          <path class="cls-7" d="m 494.08,65.75 c -0.75,-0.06 -1.5,-0.18 -2.27,-0.37 -7.21,-1.18 -10.31,-6.39 -13.17,-12.49 -1.08,-2.11 -2.22,-4.14 -2.91,-6.39 0.09,0.16 0.19,0.4 0.31,0.58 2.07,3.4 5.09,5.98 8.19,8.34 2.46,1.91 5.02,3.68 7.79,5.11 3.34,1.63 7.04,3.12 10.79,2.5 -2.33,1.85 -4.94,2.75 -7.7,2.75 -0.34,0 -0.68,-0.01 -1.02,-0.04 z" id="path130"/>
          <path class="cls-7" d="m 497.2,74.04 c -0.32,-0.03 -0.64,-0.06 -0.96,-0.12 -3.72,-0.85 -7.47,-2.08 -10.6,-4.34 0,-0.02 -0.45,-0.35 -0.2,-0.39 0.03,0 -0.04,0.04 -0.04,0.05 v 0 c 0,0 0,0 0,0 0,0 0,0 0,0 4.46,2.22 9.52,2.06 14.37,1.99 2.68,-0.37 5.42,0.05 8.02,-0.68 -1.1,1.39 -3.02,1.87 -4.62,2.55 -1.61,0.61 -3.3,0.96 -5.01,0.96 -0.32,0 -0.64,-0.01 -0.96,-0.04 z" id="path132"/>
          <g id="g1492" transform="matrix(0.77439927,-0.94813157,0.63269722,1.1604799,96.075882,467.59613)">
            <path class="cls-5" d="M 492.27633,10.523018 C 491.11825,9.0844607 490.07147,8.4048823 488.76612,7.9118257 487.4172,7.516214 486.60274,7.3739865 486.03656,7.4597428 484.95713,7.5041878 483.88575,7.7908728 485.42,6.24 c 1.41,-1.73 2.77,-3.55 4.36,-5.14 0.11,-0.07 0.22,-0.14 0.33,-0.2 0.65,-0.3 1.34,-0.52 2.03,-0.68 v 0 c 0.04,-0.01 0.07,-0.02 0.11,-0.03 0.04,-0.01 0.09,-0.02 0.14,-0.03 -0.02,0 -0.04,0 -0.07,0.01 0.02,0 0.05,0 0.07,-0.02 l -0.01,0 c 0.23,-0.05 0.47,-0.08 0.71,-0.1 0.16,0 0.32,0 0.48,0.01 0.1,0.04 0.21,0.08 0.31,0.12 0.17,0.06 0.33,0.13 0.5,0.18 0.14,0.05 0.29,0.09 0.43,0.14 0.09,0.05 0.18,0.09 0.27,0.14 0.54,0.28 1.08,0.55 1.6,0.88 0.4,0.27 0.79,0.56 1.16,0.86 0.26,0.22 0.51,0.44 0.75,0.68 0.21,0.21 0.43,0.41 0.65,0.62 0.13,0.12 0.25,0.26 0.37,0.39 0.13,0.17 0.25,0.36 0.37,0.54 0,0 0,-0.01 -0.01,-0.02 0.13,0.2 0.26,0.4 0.38,0.61 l 0.03,0.06 c 0.06,0.18 0.11,0.35 0.16,0.53 0.04,0.17 0.07,0.35 0.11,0.52 -0.01,0.08 -0.03,0.15 -0.04,0.23 -0.04,0.27 -0.08,0.53 -0.12,0.8 -0.02,0.16 -0.05,0.33 -0.08,0.5 0,0.01 -0.02,0.03 -0.03,0.04 -1.6,2.23 -5.82609,6.719226 -5.69471,6.460209 -1.79364,-2.061097 -0.94868,-1.388982 -2.40896,-3.817191 z" id="path88" style="fill:#c53131;fill-opacity:1" sodipodi:nodetypes="ccccccsssccccccccccccscccccccccccccc"/>
            <path class="cls-5" d="m 505.18051,24.675182 c -4.32192,5.396707 -3.20545,-0.483928 -7.05547,-5.365076 C 495.19247,15.540644 495.45,16.34 497.69,13.16 c 0.49,-0.7 1.53,-2.32 2.72,-3.67 0.05,-0.04 0.1,-0.09 0.14,-0.13 0.07,-0.06 0.14,-0.11 0.21,-0.17 0.07,-0.06 0.15,-0.11 0.23,-0.16 0.13,-0.09 0.27,-0.18 0.41,-0.27 0.14,-0.1 0.28,-0.19 0.42,-0.29 0.03,-0.01 0.06,-0.02 0.08,-0.03 h -0.01 c 0,0 0.02,0 0.03,-0.01 l 0.01,0 c 0,0 0.02,0 0.03,-0.01 v 0 c 0.01,0 0.02,0 0.03,-0.01 v 0 c 0.15,-0.06 0.3,-0.12 0.46,-0.18 v 0 0 0 c 0.12,-0.03 0.24,-0.07 0.37,-0.1 0.51,-0.05 1.02,-0.12 1.53,-0.17 v 0 0 0 0 c 0.09,0 0.18,-0.01 0.27,-0.02 l 0.01,0.01 c 2.22,-0.16 3.88,1.81 5.32,3.23 2.12,2.01 2.01,3.71 0.86,6.23 -1.04069,0.603069 -3.45837,4.977446 -5.62949,7.265182 z" id="path98" style="fill:#c53131;fill-opacity:1" sodipodi:nodetypes="cccccscccccccsssssccscscccsccccc"/>
            <path class="cls-5" d="M 503.45794,41.732475 C 500.46794,41.292475 497.62,38.42 497.72,35.02 c 0.07,-1.45 1.42,-2.3 2.42,-3.14 1.85,-1.54 3.41,-3.41 5.11,-5.11 1.31,-1.48 2.55,-3.01 3.77,-4.56 0.96,-1.32 1.73,-2.95 3.23,-3.73 1.08,-0.49 2.17915,-0.311828 3.35,0.71 1.70849,1.220351 5.099,3.818413 5.17489,5.586988 0.14799,3.44867 -4.79863,6.457771 -6.79489,8.963012 -2.33,3.01 -5.33467,5.629453 -8.18638,7.487945 -0.87408,0.645444 -1.41619,0.846586 -2.33568,0.50453 z" id="path100" style="fill:#c53131;fill-opacity:1" sodipodi:nodetypes="cccccccsccc"/>
            <path class="cls-5" d="m 510.17,46.59 c -0.29,-0.02 -0.57,-0.1 -0.85,-0.23 -1.77118,-1.317443 -2.45084,-2.291353 -3.34397,-3.971764 0.32,-1.03 3.18397,-2.118236 4.03397,-2.658236 1.05,-0.76 2.11,-1.51 2.99,-2.47 2.63,-2.62 5.38,-8.89 9.53,-8.7 0.1,0.04 0.19,0.08 0.29,0.12 l 0.33,0.18 c 0.12,0.07 0.23,0.13 0.35,0.2 0.26,0.2 0.51,0.4 0.76,0.61 v 0 l 0.01,0.01 v 0 0 l 0.02,0.02 v 0 l 0.03,0.03 v 0 c 0.01,0.01 0.03,0.02 0.04,0.04 v 0 0 l 0.01,0.01 c 0.03,0.03 0.07,0.06 0.1,0.09 v 0 0 0 c 0.17,0.16 0.35,0.32 0.52,0.49 0.02,0.04 0.05,0.07 0.07,0.12 0.12,0.21 0.22,0.42 0.32,0.64 0.23,0.47 0.44,0.97 0.6,1.47 0,0.01 0,0.03 0.01,0.04 0.08,0.31 0.12,0.62 0.16,0.94 v 0 c 0,0.07 0.01,0.14 0.02,0.21 0,0.3 0,0.61 -0.03,0.91 v 0 c -0.01,0.09 -0.02,0.19 -0.04,0.28 l -0.03,0.21 c -0.06,0.14 -0.12,0.28 -0.19,0.42 0,0 0,0.01 -0.01,0.02 -0.11,0.21 -0.23,0.41 -0.35,0.61 -0.01,0.01 -0.02,0.03 -0.03,0.05 -0.25,0.37 -0.5,0.73 -0.76,1.09 l 0.01,-0.01 c -0.23,0.32 -0.48,0.63 -0.71,0.95 l -0.18,0.24 c -0.63,0.51 -1.31,0.95 -1.98,1.41 -2.82,2.03 -5.45,4.38 -8.7,5.75 -0.86,0.4 -1.84,0.92 -2.82,0.92 l -0.2,0 z" id="path126" style="fill:#c53131;fill-opacity:1" sodipodi:nodetypes="cccccccccscccccccssccssccscccccsscssccccccccccccscc"/>
          </g>
          <path class="cls-5" d="m 486.67,32.72 c 0,0 -0.01,0 -0.02,0 0,0 0.02,0 0.03,0 v 0 z" id="path150"/>
          <path class="cls-5" d="m 486.67,32.73 c 0,0 0,0 0,0 0,0 0,0 0,0 z" id="path152"/>
          <path class="cls-5" d="m 486.67,32.72 c 0,0 0,0 0,0 z" id="path154"/>
          <path class="cls-5" d="m 486.67,32.72 v 0 c 0,0 0,0 0,0 z" id="path156"/>
          <path class="cls-5" d="m 486.67,32.72 c 0,0 0,0 0,0 0,0 0,0 0,0 z" id="path158"/>
          <path class="cls-5" d="m 486.68,32.73 c 0,0 0,0 0,0 0,0 0,0 0,0 z" id="path160"/>
          <path class="cls-5" d="m 486.7,32.73 c 0,0 0,0 0,0 0,0 0,0 0,0 z" id="path162"/>
          <path class="cls-5" d="m 486.7,32.74 c 0,0 0.03,0.01 0.04,0.01 -0.01,0 -0.03,-0.01 -0.04,-0.01 z" id="path164"/>
          <path class="cls-5" d="m 486.76,32.76 v 0 c 0,0 0,0 0,0 z" id="path166"/>
          <path class="cls-5" d="m 486.77,32.76 v 0 c 0,0 0,0 0,0 z" id="path168"/>
          <path class="cls-5" d="m 484.22,31.87 c 0,0 0.02,0 0.02,0 0,0 -0.02,0 -0.02,0 z" id="path170"/>
          <path class="cls-5" d="m 486.62,32.7 c 0,0 0,0 0,0 q 0,0 0,0 z" id="path172"/>
          <path class="cls-5" d="m 486.64,32.71 c 0,0 0.02,0 0.03,0.01 -0.01,0 -0.02,0 -0.03,-0.01 z" id="path174"/>
          <path class="cls-5" d="m 486.75,32.75 c 0,0 0,0 0.01,0 0,0 0,0 -0.01,0 z" id="path176"/>
          <path class="cls-5" d="m 486.77,32.76 c 0,0 0,0 0,0 0,0 0,0 0,0 z" id="path178"/>
          <path class="cls-5" d="m 506,74.83 c -2.77,-0.38 -5.55,-0.5 -8.34,-0.61 -1.75,-0.07 -3.49,-0.14 -5.24,-0.28 -1.4,-0.11 -2.8,-0.27 -4.2,-0.5 -1.47,-0.29 -3.16,-0.66 -4.25,-1.51 -0.66,0 -1.32,-0.45 -1.32,-1.34 0.1,-10.32 1.57,-5.19 -4.01,-13.9 -3.79,-6.56 -8.09,-12.79 -11.98,-19.29 -2.52,-3.91 -3,-5.77 -1.93,-8.01 0.11,-0.11 0.22,-0.21 0.33,-0.32 0.23,-0.23 0.46,-0.46 0.69,-0.7 0.24,-0.25 0.49,-0.5 0.71,-0.77 0.22,-0.25 0.45,-0.5 0.67,-0.76 0.35,-0.39 0.69,-0.79 1.04,-1.18 0.43,-0.48 0.87,-0.96 1.29,-1.44 0.38,-0.43 0.75,-0.86 1.12,-1.28 0.22,-0.23 0.43,-0.46 0.65,-0.69 0.16,-0.17 0.33,-0.35 0.5,-0.52 0.41,-0.41 0.82,-0.82 1.23,-1.24 0.42,-0.43 0.86,-0.86 1.3,-1.28 0.18,-0.17 0.35,-0.34 0.53,-0.51 0.2,-0.19 0.41,-0.38 0.61,-0.58 0.01,-0.01 0.02,-0.02 0.04,-0.03 l 0.02,-0.02 v 0 0 l 0.49,-0.49 v 0 c 0,0 0.01,0 0.01,-0.01 v 0 0 0 c 0,0 0.01,0 0.01,-0.01 v 0 0 0 c 0,0 0.04,-0.05 0.06,-0.07 v 0 -0.02 0 l 0.06,-0.06 v 0 0 0 c 0.38,-0.38 0.76,-0.77 1.14,-1.15 0.35,-0.35 0.71,-0.69 1.06,-1.05 0.2,-0.21 0.41,-0.42 0.61,-0.62 0.08,-0.09 0.16,-0.17 0.24,-0.26 v 0 h 0.01 c 0.18,-0.1 0.36,-0.2 0.53,-0.3 0.07,-0.04 0.15,-0.08 0.23,-0.12 0.09,-0.04 0.17,-0.09 0.26,-0.13 0.1,-0.05 0.2,-0.09 0.3,-0.14 0.07,-0.03 0.14,-0.07 0.21,-0.1 0.18,-0.07 0.36,-0.14 0.54,-0.22 0.19,-0.06 0.36,-0.11 0.55,-0.17 1.58445,-0.08261 3.5705,1.320338 5.06,2.09 2.09,1.1 4.39,2.06 6.54,2.92 2.35,0.9 5.1,1.81 6.33,4.19 1.01,1.94 0.77,4.93 -1.45,5.89 -2.60738,2.091641 -9.12313,3.944869 -13.37,-3.39 -0.88,2.79 -2.67,5.39 -5.16,6.92 1.98001,-0.813502 2.93286,-1.669207 3.52,-1.22 0.24,-0.69 0.97235,-2.424727 1.57235,-2.834727 0.93,-0.79 1.52765,0.894727 2.22765,1.624727 0.74,0.56 1.53,1 2.37,1.38 0.9,0.48 1.87,0.52 2.84,0.46 0.15,-0.07 0.33,-0.09 0.48,-0.1 1.3,-0.1 2.54,-0.45 3.77,-0.76 0.34,-0.12 0.7,-0.19 1.06,-0.2 5.52234,-5.540272 5.38034,-10.446007 5.64405,-3.116085 -0.0538,4.317438 -1.22633,6.125725 -0.11922,9.544829 0.37813,1.167786 0.68501,1.453294 1.74911,2.46146 5.55503,2.633702 4.62727,2.124941 8.56247,0.07563 1.14,-0.72 9.29711,0.04281 9.93711,1.992805 -0.03,2.18 -1.64354,7.261363 -2.25354,9.351363 -2.05,6.85 -5.78,12.19 -11.58,16.28 -0.55,2.14 -0.5,8.22 -3.42,8.22 v 0 z m -20.36,-5.24 c 3.13,2.25 6.88,3.49 10.6,4.33 2.35,0.38 4.72,0.03 6.93,-0.81 1.59,-0.68 3.52,-1.16 4.61,-2.55 -2.59,0.73 -5.33,0.32 -8.01,0.68 -4.85,0.08 -9.91,0.24 -14.37,-1.99 v 0 c 0,0 0.07,-0.04 0.04,-0.05 -0.25,0.05 0.2,0.37 0.2,0.39 z m -7,-16.69 c 2.86,6.1 5.97,11.31 13.17,12.49 4,0.97 7.76,0.22 10.99,-2.35 -3.75,0.63 -7.45,-0.87 -10.79,-2.5 -2.77,-1.43 -5.34,-3.2 -7.8,-5.11 -3.1,-2.36 -6.12,-4.95 -8.19,-8.34 -0.12,-0.17 -0.22,-0.42 -0.31,-0.58 0.69,2.25 1.83,4.27 2.91,6.39 z" id="path184" style="fill:#c53131;fill-opacity:1" sodipodi:nodetypes="cccccccccscccccccscccsccccccscccscccsccccccssccsccccccccccccccccccccccccscccccscccccccscccccccccccc"/>
        </g>
      </g>
    </g>
    <path class="cls-5" d="m 425.68,80.079818 c -11.15,0.258175 -6.44,-8.230634 -12.65,-13.022371 -0.24,-0.123925 -0.41,-0.30981 -0.52,-0.526678 -0.65,-0.320138 -1.27,-0.681583 -1.88,-1.084337 -3.54,-2.581755 -6.39,-6.237519 -7.88,-10.450943 -2.4,-6.578311 -2.44,-13.962129 -1.3,-20.829596 1.03,-5.44234 3.1,-10.864025 6.52,-15.170391 1.91,-2.075732 3.99,-4.048192 6.35,-5.576591 4.02,-2.654043 8.73,-3.9965559 13.49,-4.0688449 1.42,-0.041308 2.83,-0.07229 4.25,0 0.43,0.030981 0.88,0.1135972 1.22,0.3717726 8.36,1.4044743 15.15,6.7641973 19.52,15.1497363 3.56,6.03098 4.28,13.177276 4.6,20.086051 0.15,4.36833 -0.35,8.901891 -2.23,12.857139 -2.3,4.564543 -5.09,8.178999 -9.23,10.626503 -0.21,0.340791 -0.41,0.681583 -0.62,1.022375 -1.36,2.086057 -2.2,4.068845 -3.01,6.361443 -0.45,1.197934 -1.04,2.509466 -2.24,3.056797 -2.83,0.495698 -5.71,0.846816 -8.59,1.032703 -1.93,0.123924 -3.87,0.185885 -5.8,0.165232 z" id="path198" style="fill:#c53131;fill-opacity:1;stroke-width:1.01622"/>
    <path class="cls-7" d="m 428.44,68.63 c -2.98,-0.23 -6.1,-0.46 -8.91,-1.39 4,0.56 8.03,0.24 11.9,-0.69 1.94,-0.69 3.9,-1.34 5.84,-2.05 2.62,-1.28 5.05,-2.47 7.39,-4.16 2.78,-1.79 5.93,-3.62 7.09,-6.9 0.68,-1.33 1.35,-2.74 1.92,-4.09 -0.29,3.09 0.22,6.43 -1.3,9.26 -2.48,4.41 -6.86,7.68 -11.71,9.06 -1.75,0.61 -3.61,0.73 -5.44,0.84 -0.66,0.08 -1.33,0.14 -1.99,0.18 -1.59,0.1 -3.19,0.1 -4.79,-0.05 z" id="path200"/>
    <path class="cls-7" d="m 429.83,78.01 c -2.76,0.24 -5.53,0.22 -8.26,-0.3 3.33,-0.03 6.91,-1 10.17,-1.56 1.88,-0.28 3.74,-0.56 5.6,-0.96 0.91,-0.36 1.95,-0.39 2.83,-0.8 0.03,0 -0.02,0.03 -0.02,0.04 -0.01,0.02 -0.03,0.04 -0.03,0.05 -2.34,2.38 -5.65,3.26 -8.91,3.47 -0.46,0.03 -0.92,0.04 -1.37,0.05 z" id="path202"/>
    <g id="Calque_de_pixel_Image" data-name="Calque de pixel Image">
      <g id="g211">
        <path class="cls-2" d="M563.45,84.85c2.18.44,2.83,1.07,3.27,3.27v2.73c-.19.15-.45.32-.55.55-2.28,2.27-5.19,3.55-8.73,3.82-1.26.08-2.56-.09-3.82,0l-6.13,2.31-169.98,46.74c-.93.26-1.71.45-2.26-.51-.49-.77-1.27-1.47-1.64-2.73v-3.27l1.5-2.18c15.48-4.25,31.13-7.95,46.62-12.16,37.67-10.22,75.38-21.93,113.22-31.33,5.6-1.39,9.04-1.65,14.57-2.34,4.08-.51,6.72-2.82,10.1-4.9h3.82Z" id="path205"/>
        <path class="cls-3" d="M553.64,95.21c-2.85,1.63-5.49,3.74-8.72,4.64-52.97,13.33-105.2,29.54-158.07,43.2-2.02.52-9.64,2.98-10.95,2.24-.24-.14-.37-1.15-.62-1.54l167.88-46.21c3.63-.84,6.73-2.06,10.48-2.34Z" id="path207"/>
        <path class="cls-4" d="M566.18,91.39c-2.02,4.55-4.49,3.57-8.73,3.82l8.73-3.82Z" id="path209"/>
      </g>
    </g>
    <g id="Groupe_de_calques-2" data-name="Groupe de calques">
      <g id="Calque_vectoriel-2" data-name="Calque vectoriel">
        <rect class="cls-5" x="44.4" y="269.14" width="776.2" height="58.43" id="rect214" style="fill:#c53131;fill-opacity:1"/>
      </g>
      <g id="BATUCADA_MILITANTE_Calque_de_pixel_Image" data-name="BATUCADA MILITANTE  + Calque de pixel Image" style="fill:#000000;fill-opacity:1">
        <g id="g257" style="fill:#000000;fill-opacity:1">
          <path class="cls-6" d="M199.55,316.12c-5.03-1.38-9.85-4.42-11.22-9.78-.16-.62-.78-4.26-.78-4.67v-19.09c0-.06.76-.82.82-.82h10.64v18.82c0,.19.92,3.52,1.05,3.73,1.51,2.54,7.68,1.47,7.68-2.09v-20.45h11.45v21.55c0,.36-.97,3.61-1.21,4.24-2,5.2-6.37,7.04-11.33,8.58h-7.09Z" id="path217" style="fill:#000000;fill-opacity:1"/>
          <path class="cls-6" d="M798.45,315.03h-24v-32.45c0-.06.76-.82.82-.82h21.82c.06,0,.82.76.82.82v8.18c0,.06-.76.82-.82.82h-11.73c-.11,0-.11,2.18,0,2.18h11.45v9.27h-11.45v2.73s13.09,0,13.09,0v9.27Z" id="path219" style="fill:#000000;fill-opacity:1"/>
          <path class="cls-6" d="M476.64,297.57c-2.53,5.48-3.9,11.46-5.94,17.13-.4.57-7.82.64-8.52-.21-.89-1.07-3.94-12.99-5.04-15.72-.33-.83.32-1.48-1.23-1.19l1.09,17.45h-10.91v-32.45c0-.06.76-.82.82-.82h13.64c1.94,1.48,5.61,17.48,6.55,17.46,1.98-5.73,3.09-11.97,5.45-17.46h15v33.27h-11.45c.99-4.99.55-10.63.55-15.82.32-.62.56-2.57,0-1.64Z" id="path221" style="fill:#000000;fill-opacity:1"/>
          <path class="cls-6" d="M696.73,281.75c1.25.39,7.4,14.22,9.54,15.82-.1-3.72.14-7.48.03-11.2-.03-.93-1.23-4.61.25-4.61h10.09v33.27h-11.18c-.86,0-7.63-12.91-8.74-14.72-2.18-1.41-.26.59-.26.81v13.91h-10.91v-32.45c0-.06.76-.82.82-.82,2.15,0,8.96-.44,10.36,0Z" id="path223" style="fill:#000000;fill-opacity:1"/>
          <path class="cls-6" d="M327.73,315.03v-32.45c0-.06.76-.82.82-.82h15.27c1.08,0,5.67,1.29,6.97,1.76,12.71,4.61,12.57,24.16.41,29.62-1.17.53-4.71,1.9-5.74,1.9h-17.73ZM339.18,291.57v13.64c12.89,2.15,12.76-15.45,0-13.64Z" id="path225" style="fill:#000000;fill-opacity:1"/>
          <path class="cls-6" d="M314.09,315.03h-12.55c-.27,0-.68-4.4-1.98-4.83-.56-.19-9.09-.27-9.68-.11-.82.52-1.17,4.94-1.42,4.94h-12l13.34-33.31c2.24.46,10.23-.73,11.49.57l12.8,32.74ZM295.54,294.84c-.89-.94-.92.29-1.14.77-.33.72-1.83,5.54-1.58,5.78h4.36c-.24-.94-1.41-6.3-1.64-6.54Z" id="path227" style="fill:#000000;fill-opacity:1"/>
          <path class="cls-6" d="M409.55,315.03h-12.55c-.27,0-.68-4.4-1.98-4.83-.56-.19-9.09-.27-9.68-.11-.82.52-1.17,4.94-1.42,4.94h-12l13.34-33.31c2.24.46,10.23-.73,11.49.57l12.8,32.74ZM390.99,294.84c-.89-.94-.92.29-1.14.77-.33.72-1.83,5.54-1.58,5.78h4.36c-.24-.94-1.41-6.3-1.64-6.54Z" id="path229" style="fill:#000000;fill-opacity:1"/>
          <path class="cls-6" d="M671.91,315.03h-12.55c-.27,0-.68-4.4-1.98-4.83-.56-.19-9.09-.27-9.68-.11-.82.52-1.17,4.94-1.42,4.94h-12l13.34-33.31c2.24.46,10.23-.73,11.49.57l12.8,32.74ZM653.36,294.84c-.89-.94-.92.29-1.14.77-.33.72-1.83,5.54-1.58,5.78h4.36c-.24-.94-1.41-6.3-1.64-6.54Z" id="path231" style="fill:#000000;fill-opacity:1"/>
          <polygon class="cls-6" points="625.55 281.75 625.55 291.57 617.36 291.57 617.36 315.03 605.91 315.03 605.91 291.57 597.73 291.57 597.73 281.75 625.55 281.75" id="polygon233" style="fill:#000000;fill-opacity:1"/>
          <polygon class="cls-6" points="759.73 281.75 759.73 291.57 751.55 291.57 751.55 315.03 740.09 315.03 740.09 291.57 731.91 291.57 731.91 281.75 759.73 281.75" id="polygon235" style="fill:#000000;fill-opacity:1"/>
          <path class="cls-6" d="M545.36,281.75v23.45h10.64c.06,0,.82.76.82.82v9h-22.91v-32.45c0-.06.76-.82.82-.82h10.64Z" id="path237" style="fill:#000000;fill-opacity:1"/>
          <path class="cls-6" d="M516.45,281.75v33.27h-11.45v-32.45c0-.06.76-.82.82-.82h10.64Z" id="path239" style="fill:#000000;fill-opacity:1"/>
          <path class="cls-6" d="M583,281.75v33.27h-11.45v-32.45c0-.06.76-.82.82-.82h10.64Z" id="path241" style="fill:#000000;fill-opacity:1"/>
          <path class="cls-6" d="M476.64,299.21v-1.64c.1-.22-.07-.75,0-1.09h.53c-.05.84.37,2.24-.54,2.72Z" id="path243" style="fill:#000000;fill-opacity:1"/>
          <path class="cls-6" d="M137.36,315.03h-12.55c-.27,0-.68-4.4-1.98-4.83-.56-.19-9.09-.27-9.68-.11-.82.52-1.17,4.94-1.42,4.94h-12l13.34-33.31c2.24.46,10.23-.73,11.49.57l12.8,32.74ZM118.81,294.84c-.89-.94-.92.29-1.14.77-.33.72-1.83,5.54-1.58,5.78h4.36c-.24-.94-1.41-6.3-1.64-6.54Z" id="path245" style="fill:#000000;fill-opacity:1"/>
          <path class="cls-6" d="M253,280.66c2.76.83,5.38.78,8.18,1.91,1.77.72,3.54,1.92,4.9,3.27-1.61.96-6.1,8.02-7.25,7.84-.61-.1-2.13-1.7-3.5-1.99-11.65-2.46-10.75,17.8,1.64,12.84.79-.32,1.5-1.65,2.25-1.5.83.17,5.37,7.06,6.87,7.89-2.81,2.87-6.1,4.01-9.81,5.18h-6.55c-17.05-3.29-20.52-25.87-4.9-33.54l7.63-1.92h.55Z" id="path247" style="fill:#000000;fill-opacity:1"/>
          <polygon class="cls-6" points="173.36 281.75 173.36 291.57 165.18 291.57 165.18 315.03 153.73 315.03 153.73 291.57 145.55 291.57 145.55 281.75 173.36 281.75" id="polygon249" style="fill:#000000;fill-opacity:1"/>
          <g id="g255" style="fill:#000000;fill-opacity:1">
            <path class="cls-6" d="M58.82,282.3c.91-.62,1.94-.53,2.97-.57,5.98-.21,22.05-1.31,23.63,6.42,1.03,5.01-.49,7.08-4.24,9.96,4.69,1.28,6.78,5.04,5.62,9.73-2.6,10.54-19.55,6.36-27.44,7.19-.42-10.59-.6-21.31-.55-32.18v-.55ZM69.72,294.3c7.18.87,7.15-4.15,0-3.28v3.28ZM75.05,302.61c-1.04-1.01-3.9-.61-5.33-.68v4.37c2.26.75,8.15-.95,5.33-3.69Z" id="path251" style="fill:#000000;fill-opacity:1"/>
            <polygon class="cls-6" points="59.36 315.03 58.82 315.03 58.82 282.85 59.36 315.03" id="polygon253" style="fill:#000000;fill-opacity:1"/>
          </g>
        </g>
      </g>
    </g>
  </g>
</svg>