<?xml version="1.0" encoding="UTF-8" standalone="no"?>
<svg
   id="Calque_1"
   data-name="Calque 1"
   viewBox="0 0 958.73308 958.73308"
   version="1.1"
   sodipodi:docname="favicon.svg"
   width="958.73309"
   height="958.73309"
   inkscape:version="1.4.2 (ebf0e940d0, 2025-05-08)"
   xmlns:inkscape="http://www.inkscape.org/namespaces/inkscape"
   xmlns:sodipodi="http://sodipodi.sourceforge.net/DTD/sodipodi-0.dtd"
   xmlns="http://www.w3.org/2000/svg"
   xmlns:svg="http://www.w3.org/2000/svg">
  <sodipodi:namedview
     id="namedview7"
     pagecolor="#ffffff"
     bordercolor="#000000"
     borderopacity="0.25"
     inkscape:showpageshadow="2"
     inkscape:pageopacity="0.0"
     inkscape:pagecheckerboard="0"
     inkscape:deskcolor="#d1d1d1"
     inkscape:zoom="0.60896761"
     inkscape:cx="494.27916"
     inkscape:cy="473.75262"
     inkscape:window-width="1920"
     inkscape:window-height="1043"
     inkscape:window-x="0"
     inkscape:window-y="0"
     inkscape:window-maximized="1"
     inkscape:current-layer="Calque_1" />
  <defs
     id="defs1">
    <style
       id="style1">.cls-1{fill:none;stroke:#000;stroke-miterlimit:10;stroke-width:12px;}.cls-2{clip-path:url(#clip-path);}.cls-3{fill:#d62828;}.cls-4{fill:#fffbdb;}</style>
    <clipPath
       clipPathUnits="userSpaceOnUse"
       id="clipPath7">
      <circle
         class="cls-1"
         cx="486.40399"
         cy="486.974"
         r="475.88"
         id="circle8" />
    </clipPath>
    <clipPath
       clipPathUnits="userSpaceOnUse"
       id="clipPath8">
      <circle
         class="cls-1"
         cx="486.40399"
         cy="486.974"
         r="475.88"
         id="circle9" />
    </clipPath>
    <clipPath
       clipPathUnits="userSpaceOnUse"
       id="clipPath9">
      <circle
         class="cls-1"
         cx="486.40399"
         cy="486.974"
         r="475.88"
         id="circle10" />
    </clipPath>
    <clipPath
       clipPathUnits="userSpaceOnUse"
       id="clipPath10">
      <circle
         class="cls-1"
         cx="486.40399"
         cy="486.974"
         r="475.88"
         id="circle11" />
    </clipPath>
    <clipPath
       clipPathUnits="userSpaceOnUse"
       id="clipPath11">
      <circle
         class="cls-1"
         cx="486.40399"
         cy="486.974"
         r="475.88"
         id="circle12" />
    </clipPath>
    <clipPath
       clipPathUnits="userSpaceOnUse"
       id="clipPath12">
      <circle
         class="cls-1"
         cx="486.40399"
         cy="486.974"
         r="475.88"
         id="circle13" />
    </clipPath>
    <clipPath
       clipPathUnits="userSpaceOnUse"
       id="clipPath13">
      <circle
         class="cls-1"
         cx="486.40399"
         cy="486.974"
         r="475.88"
         id="circle14" />
    </clipPath>
  </defs>
  <circle
     cx="468.73401"
     cy="468.73401"
     r="480.07001"
     id="circle2"
     clip-path="url(#clipPath13)" />
  <path
     class="cls-3"
     d="m 948.80399,468.73399 c 0,265.14 -419.28,-123.69 -448.62,-142.55 -40.6,-26.1 113.2,-190.77 -31.45,-337.519999 265.14,0 480.07,214.949999 480.07,480.069999 z"
     id="path2"
     clip-path="url(#clipPath12)" />
  <path
     class="cls-4"
     d="m 236.24399,148.16399 c -10.28,-6.89 -17.42,-12.28 -25.13,-16.67 -6.93,-3.94 -10.32,-8.75 -7.9,-16.77 a 20.65,20.65 0 0 0 0.54,-4.11 c 1.68,-18.699999 -0.54,-30.469999 -8.78,-36.609999 a 482.13,482.13 0 0 0 -64.9,54.129999 c 26.22,36.6 62.63,35.8 106.17,20.03 z"
     id="path3"
     clip-path="url(#clipPath11)" />
  <path
     class="cls-4"
     d="m 251.23399,102.55399 c -6.21,-17.279999 -13.56,-34.139999 -20.64,-51.099999 q -11.18,6.41 -22,13.38 c 5,5.17 7.43,14.16 10.68,29.79 3.56,17.149999 7.69,32.999999 25.79,41.749999 10.51,-9.66 10.42,-21.98 6.17,-33.82 z"
     id="path4"
     clip-path="url(#clipPath10)" />
  <path
     class="cls-4"
     d="m 901.45399,260.23399 a 480,480 0 0 0 -39.68,-67.54 c -3.08,7.1 -3.09,17.21 -0.8,31.37 1.45,9 -0.63,13.41 -8.25,17.53 -7.62,4.12 -14.33,9.79 -21.6,14.89 17.67,16 43.46,16.77 70.33,3.75 z"
     id="path5"
     clip-path="url(#clipPath9)" />
  <path
     class="cls-4"
     d="m 819.96399,247.41399 c 12.13,-9 20.91,-18.28 23.63,-34 2.85,-16.47 4.93,-27.1 8.52,-34 q -8.37,-11.1 -17.38,-21.68 a 30.92,30.92 0 0 1 -3.52,9.43 c -7.29,13.78 -12.91,28.56 -18,43.35 -4.32,12.7 -2.94,25.25 6.75,36.9 z"
     id="path6"
     clip-path="url(#clipPath8)" />
  <path
     class="cls-4"
     d="m 844.39399,348.90399 c -8.69,-37.28 9.23,-57.76 46.84,-53.57 a 100,100 0 0 1 28,6.92 q -5,-13.39 -10.67,-26.4 c -14.54,8 -29.41,13.57 -46.73,12.4 -7.48,-0.5 -27.71,22.38 -27.28,30.46 1,18.24 -4.79,34.22 -13.55,49.91 -2.88,5.15 -3.26,13.12 -1.73,19 a 266.66,266.66 0 0 0 13.91,40.42 c 15,34 8.92,67.48 -0.76,102.45 -12.46,-4.17 -18,-9.53 -12.62,-22.61 10.42,-25.21 7.48,-49.37 -8.07,-72.2 -9.3,-13.65 -17.43,-28.1 -27.27,-44.11 37.68,-27.14 36.26,-64 19.28,-107.79 -6.66,10.43 -11.88,17.69 -16.11,25.49 -3.79,7 -8.52,10.52 -16.59,8.27 a 20.8,20.8 0 0 0 -4.12,-0.45 c -33,-2.24 -44.25,7.15 -40.54,40 3.18,28.14 -14.37,47 -23.38,71.94 -8.26,-10.9 -6.61,-20.29 -1.27,-27.66 11.89,-16.42 13.64,-34.48 13.2,-53.81 -0.8,-34.49 1.59,-37.8 35.66,-45.66 17.07,-3.94 32.77,-8.42 41.18,-26.7 -9.9,-10.27 -22.21,-9.92 -34,-5.4 -19.72,7.58 -38.87,16.67 -58.25,25.12 -11.41,-10.38 -21.39,-24 -34.81,-30.4 -13.17,-6.28 -29.83,-5.22 -44.77,-7.35 3.31,-14.49 27.95,-22 43.55,-10.68 a 240.31,240.31 0 0 1 19.69,15.26 c 12.58,11.24 26.93,10.67 41.65,6.63 11,-3 13.87,-10.07 10.34,-21.3 -1.73,-5.52 -2.1,-13.94 1,-18 9.51,-12.71 20,-25.11 32.1,-35.26 5,-4.22 15.51,-4.4 22.81,-2.93 11.85,2.4 18,-2 20.58,-12.39 4.1,-16.25 0.76,-30.92 -10.79,-43.62 -8.18,-9 -16,-17.74 -18.18,-29.68 q -13.83,-11.999999 -28.58,-22.869999 c -3.45,2.77 -7.07,5.36 -10.38,8.29 -15,13.179999 -18.91,28.759999 -11.1,47.109999 1.31,3.05 6.29,5.4 10,6.39 6.57,1.72 13.95,0.92 20.14,3.35 16.36,6.43 18.31,18 6.25,30.33 q -22.67,23.18 -45,46.69 c -12.58,13.27 -25,11.78 -31.15,-5.52 -3.38,-9.54 -2.69,-20.53 -3.93,-31.7 -18.48,-8.31 -35.25,-4.82 -48.52,11.14 -3.23,3.9 -6.94,7.58 -9.31,12 -4.69,8.66 -10.83,10.3 -20.43,8.46 -22.67,-4.33 -44.94,-2.47 -65.79,8.75 -1.82,1 -4.1,1.11 -6.8,1.79 8,-19.14 22.51,-28.62 42.31,-28.21 7.36,0.15 15.37,2.76 21.9,0.63 9.37,-3.06 19.69,-7.68 25.88,-14.85 6.78,-7.86 12.91,-13.84 23.41,-14.6 9.63,-0.7 19.56,-3.62 28.78,-2.1 16.18,2.68 23.49,-9.57 33.6,-17 2.21,-1.67 2.21,-6.67 2.41,-10.14 0.63,-11.48 0.85,-23 1.26,-34.49 0.47,-13.149999 4.86,-22.999999 17,-30.899999 a 16.88,16.88 0 0 0 5.07,-5.68 481.06,481.06 0 0 0 -388.35,-69.29 c 0.85,8.29 2.59,16.71 1.12,24.54 -3,16.11 9.05,23.69 16.29,34 1.53,2.17 6.53,2.34 10,2.61 11.47,0.87 23,1.35 34.45,2 13.14,0.76 22.88,5.37 30.52,17.66 3.93,6.34 14.86,9.73 23.25,11.5 8.39,1.77 17.41,-0.82 26.11,-0.43 18.29,0.83 32.13,8.999999 42,29.449999 -27.75,-15.41 -54.23,-16.35 -81.5,-11 -3,0.6 -7.64,-2 -10.09,-4.47 -4.8,-4.9 -8.39,-10.949999 -12.84,-16.229999 -12.85,-15.25 -28.34,-19.53 -46.85,-12.13 -3.09,1.24 -5.55,6.17 -6.61,9.87 -1.88,6.52 -1.23,13.919999 -3.8,19.999999 -6.79,16.22 -18.4,17.92 -30.46,5.58 q -22.67,-23.159999 -45.69,-45.999999 c -13,-12.87 -11.23,-25.26 6.2,-31 9.62,-3.17 20.59,-2.24 31.79,-3.23 4.93,-10.35 6.06,-20.23 3.29,-29.33 a 475.76,475.76 0 0 0 -84.75,32.84 c -4,9.57 -3.11,20 -0.45,30.57 2.78,11.11 9.77,14.1 21.07,10.81 5.55,-1.61 14,-1.79 18,1.36 12.49,9.79 24.66,20.549999 34.54,32.869999 4.11,5.13 4.06,15.6 2.43,22.86 -2.66,11.8 1.65,18 11.94,20.85 16.15,4.46 30.89,1.45 43.84,-9.82 12.1,-10.53 23.7,-20.45 42.55,-17.45 10.77,1.72 17,4.65 20,15.73 -2.25,0.3 -4.48,1.17 -6.45,0.76 -27.13,-5.53 -48.05,5 -63.9,26.05 -7.79,10.35 -14.45,10.54 -25.21,4.55 -13.56,-7.54 -28.21,-13.54 -42.88,-18.91 -12.59,-4.63 -25.16,-3.53 -37,5.9 8.71,12.32 17.81,21.31 33.43,24.37 46.3,9.07 46.34,10.92 46.11,58.18 -0.06,12.08 5.69,24.67 10.75,36.15 4.53,10.29 10.12,19.52 0.68,33.87 -7.74,-25.06 -28,-42.46 -23.08,-69.29 a 7.94,7.94 0 0 0 0.1,-1.38 c 0.2,-36.29 -9.58,-45.39 -45.55,-40.38 -9,1.25 -13.4,-0.93 -17.35,-8.64 -3.95,-7.71 -9.47,-14.54 -14.41,-21.92 -23.63,25 -16,67.52 19.12,106.47 -8.92,13.34 -17.66,27.3 -27.29,40.62 -16.35,22.64 -17.36,46.72 -8.51,72.23 5.39,15.55 5.21,15.61 -12.22,23.57 -7.25,-28.21 -16,-55.71 -6.24,-85 6.29,-18.79 13,-37.48 18.34,-56.53 1.64,-5.84 1.45,-13.88 -1.38,-19 -9.14,-16.47 -16,-33 -14.26,-52.38 0.67,-7.47 -21.76,-28.21 -29.85,-27.95 -18.25,0.57 -34.1,-5.54 -49.6,-14.65 -5.08,-3 -13.05,-3.55 -19,-2.14 a 266,266 0 0 0 -40.709999,13 c -1,0.43 -2.09,0.85 -3.13,1.24 a 478,478 0 0 0 -99.56,292.8 c 0,216.62 143.479999,399.7 340.579999,459.46 8.36,-12.87 12.08,-28.06 11.26,-45.42 -0.78,-16.5 -0.14,-33.06 -0.14,-51.86 46.31,-3.4 64.37,-35.52 72.84,-81.75 -11.13,5.4 -19.38,8.85 -27.07,13.29 -6.9,4 -12.77,4.49 -18.46,-1.64 a 20.5,20.5 0 0 0 -3.28,-2.54 c -27,-19.19 -41.45,-17.07 -55.48,12.86 -12,25.65 -36.82,32.49 -57.57,49.06 -1.33,-13.6 5,-20.75 13.39,-24.23 18.73,-7.76 29.67,-22.24 39.41,-38.94 17.38,-29.8 21.14,-31.38 54.29,-20.24 16.6,5.58 32.32,10 49.06,-1.2 -3.05,-13.93 -13.74,-20.07 -26.11,-22.37 -20.77,-3.87 -41.84,-6.14 -62.78,-9.09 -4.29,-14.82 -5.67,-31.64 -13.75,-44.12 -7.93,-12.24 -22.69,-20.06 -34.3,-29.7 10.4,-10.62 35.31,-4.08 42.7,13.7 a 240.81,240.81 0 0 1 8.75,23.28 c 4.84,16.16 17.36,23.18 32,27.45 11,3.2 17.1,-1.32 20,-12.74 1.41,-5.6 5.5,-13 10.24,-14.85 14.76,-5.85 30.19,-10.93 45.81,-13.24 6.5,-1 15.52,4.36 21,9.44 8.84,8.25 16.38,7.66 24,0.21 12,-11.7 16.84,-25.94 13.64,-42.81 -3,-15.76 -5.7,-30.78 6.4,-45.54 6.92,-8.44 12.62,-12.37 23.69,-9.35 -0.88,2.09 -1.25,4.45 -2.6,6 -18.46,20.64 -19.92,44 -9.75,68.32 5,11.94 1.81,17.79 -8.79,24.05 -13.42,7.93 -25.95,17.58 -38,27.53 -10.34,8.53 -15.73,19.94 -13.58,34.94 15,-1.31 27.39,-4.63 37.91,-16.57 31.19,-35.4 32.81,-34.51 73.5,-10.46 10.4,6.15 24.16,7.53 36.63,9 11.17,1.28 22,1.11 29.59,16.5 -25.55,-6 -50.78,2.74 -71.47,-15 a 7.41,7.41 0 0 0 -1.14,-0.78 c -31.23,-18.49 -44,-14.64 -57.85,19 -3.46,8.39 -7.56,11.1 -16.21,10.62 -8.65,-0.48 -17.33,0.84 -26.2,1.38 9.64,33 50.24,47.87 101.57,37.21 7,14.43 14.66,29 21.31,44 11.3,25.55 31.57,38.57 58.06,43.8 16.15,3.18 16.11,3.37 14.19,22.44 -28,-8 -56.19,-14.27 -76.5,-37.48 -13,-14.91 -25.8,-30.12 -39.56,-44.36 -4.21,-4.36 -11.24,-8.25 -17.07,-8.38 -18.83,-0.41 -36.55,-2.82 -52.42,-14.11 -6.11,-4.34 -35.33,4.56 -39.19,11.67 -8.72,16 -22,26.66 -37.67,35.44 -5.15,2.88 -9.65,9.47 -11.42,15.29 a 266.07,266.07 0 0 0 -9.31,41.7 c -2.34,17.27 -8.61,32 -17.3,45.32 a 479.8,479.8 0 0 0 106.5,15.68 c -34.32,-28.74 -52.18,-80.81 -38.25,-122.58 12.11,-36.31 38.09,-44.38 67.95,-21.12 25.41,19.81 36.09,41.75 35.93,80.18 -0.89,18.48 -4.43,41.31 -15.57,62.67 249.59,-17.11 446.76,-225 446.76,-478.9 0,-11.54 -0.43,-23 -1.23,-34.3 -46.57,-4.02 -92.74,-40.35 -103.21,-85.3 z m -672.72,-42.08 c -18.36,9.58 -43.1,19.06 -70.68,18.28 -10.539999,-0.3 -16.939999,-4.69 -18.209999,-16.36 -5.71,-52.68 35.759999,-110.56 87.459999,-121.41 37.47,-7.86 57.55,10.5 52.52,48 -4.28,31.94 -17.83,52.28 -51.09,71.49 z m 320.91,236.59 c -1,2.91 -5.56,5.6 -8.95,6.45 -6.65,1.68 -13.69,1.72 -20.49,2.9 -19.66,3.4 -31.17,14.61 -34.11,34.34 -0.49,3.29 2.52,7.9 5.18,10.68 4.69,4.91 11.4,8.09 15.4,13.4 10.58,14 6.18,24.92 -10.55,29.12 q -31.44,7.88 -62.75,16.24 c -17.66,4.73 -27.47,-3 -23.64,-21 2.1,-9.9 8.44,-18.9 13.24,-29.07 -11.4,-16.75 -27.52,-22.56 -47.18,-15.9 -4.79,1.62 -9.88,2.82 -14.2,5.32 -8.53,4.92 -14.61,3.11 -21.83,-3.48 -17,-15.56 -37,-25.63 -60.64,-27 -2.06,-0.11 -4.07,-1.2 -6.73,-2 16.87,-12.11 34.16,-12.61 50.82,-1.9 6.19,4 11.65,10.4 18.33,12 9.58,2.3 20.79,3.76 29.82,0.89 9.89,-3.14 18.24,-5 27.59,-0.19 8.57,4.45 18.56,7.16 25.62,13.29 12.39,10.74 25,4.13 37.55,3.06 2.64,-0.22 5.31,-4.45 7.29,-7.31 6.54,-9.47 12.76,-19.15 19.12,-28.74 7.28,-11 16.18,-17 30.65,-17.43 7.45,-0.2 15.9,-7.93 21.66,-14.28 5.76,-6.35 8.07,-15.44 12.8,-22.76 9.94,-15.37 24,-23.21 46.63,-21.43 -27.31,16.18 -41.48,38.56 -50.63,64.8 z"
     id="path7"
     clip-path="url(#clipPath7)" />
  <circle
     class="cls-1"
     cx="479.36655"
     cy="479.36655"
     r="471.86655"
     id="circle7"
     style="stroke-width:15;stroke-dasharray:none" />
</svg>
