<?xml version="1.0" encoding="UTF-8"?>
<svg data-name="Calque 12" version="1.1" viewBox="0 0 1920 1080" xmlns="http://www.w3.org/2000/svg">
 <defs>
  <style>.cls-1{fill:#fffbdb;}.cls-2{fill:#d62828;}</style>
 </defs>
 <path d="m1035.2 399.6-5.75 52-19.79-87.32-331.41 75.1-29.37-129.56-283.01 64.13 12.48 55.11-147.78-16.35-35.09 317.28 508.9 56.29 8.95-80.85 295.45-66.95-8.67 78.4 654.82 72.43 35.1-317.27z"/>
 <path d="m0 0"/>
 <path class="cls-1" d="m458.14 546.53h-0.09c-19.61-2.15-37 2.27-50.31 12.78s-21.48 26.29-23.59 45.62c-4.37 39.88 19.21 68.55 60.07 73.07h0.08c19.56 2.15 36.9-2.29 50.15-12.84s21.39-26.4 23.51-45.81c4.26-39.14-19.77-68.35-59.82-72.82zm-11.92 107.27c-23.73-2.62-36.76-20.12-34-45.68 1.35-12.55 6.12-22.69 13.78-29.34s17.74-9.44 29.29-8.19h0.13c23.78 2.63 37 20.07 34.42 45.54-1.31 13.18-6.31 23.63-14.46 30.23-7.55 6.12-17.62 8.69-29.1 7.43z"/>
 <path class="cls-1" d="m268.82 656.51 27.17 3.01 7.35-66.38 60.99 6.74 3.1-28.02-60.16-6.65 4.45-40.18 85.09 9.42 2.96-26.74-113.11-12.52z" fill="#fffbdb"/>
 <path class="cls-1" d="M631.82,573.43c-.24,2.09-.45,4-.67,6q-1,9-2,18.05c-1.45,13.49-2.95,27.44-4.84,41.09-2.79,20.26-16.8,31.16-37.45,29.14-20.81-2-29.34-12.67-27.78-34.51,1-14,2.65-28.17,4.24-41.89.75-6.45,1.53-13.12,2.22-19.69.21-2,.32-3.91.44-6,0-.94.1-1.89.17-2.86l.15-2.36-27.38-3-.27,2.46q-1,9.42-2.09,18.65c-1.81,16.15-3.52,31.39-5.09,47a109.84,109.84,0,0,0-.45,20.51c2,23.26,15.83,39.31,37.9,44a80.17,80.17,0,0,0,7.95,1.31c21.31,2.35,37.11-5.69,48.15-24.45.11-.17.22-.34.35-.52l-7.1,28.84,27.7,3.07L660.09,571l-27.67-3.06Z"/>
 <path class="cls-1" d="M1210.81,521.38a69,69,0,0,0-50.47,9.62,62.31,62.31,0,0,0-27.62,41.28c-6.93,37.68,15.83,72.41,51.83,79.08q2.87.52,5.76.85c18.17,2,36.65-2.22,50.37-11.72,11.1-7.68,18.36-18.34,20.46-30l.46-2.61-2.63-.29c-1.42-.16-2.85-.29-4.27-.41-3.15-.28-20.67-.57-24.4,5.93-7.74,13.47-27.5,19.41-45,13.52-16.49-5.56-26-19.4-25.3-36.48l102.51,11.34.43-2.24c3.64-18.94.36-37.13-9.26-51.22C1244.26,534.21,1229,524.75,1210.81,521.38Zm-46,44.88c3.12-12.53,19.66-22.8,35.82-21.66,18.56,1.31,31.68,13,33.5,29.33Z"/>
 <path class="cls-1" d="M1432.45,545.9a69,69,0,0,0-50.46,9.61,62.32,62.32,0,0,0-27.62,41.29c-6.94,37.68,15.83,72.41,51.82,79.08q2.88.52,5.76.85c18.18,2,36.65-2.23,50.38-11.72,11.1-7.68,18.36-18.35,20.45-30l.47-2.6-2.63-.3c-1.42-.15-2.85-.28-4.27-.4-3.15-.28-20.67-.58-24.41,5.93-7.73,13.47-27.5,19.41-45,13.52-16.49-5.56-26-19.4-25.3-36.48L1484.14,626l.44-2.25c3.64-18.94.35-37.12-9.26-51.21C1465.9,558.73,1450.68,549.27,1432.45,545.9Zm-46,44.88c3.12-12.53,19.65-22.81,35.82-21.66,18.55,1.31,31.68,13,33.5,29.33Z"/>
 <path class="cls-1" d="m1589 623.68c-8.56-5.83-19.72-4.07-53.9-19.79-4.48-2.28-6.35-7.28-5-13.36 1-4.59 4.29-7 10.31-7.68a73.21 73.21 0 0 1 17.79 0c18 2.53 22.81 7.61 24.4 25.9l0.18 2 25.37 2.81 0.48-2.18c4-18-4.09-35-20.51-43.37-18.82-9.56-39.38-11.81-61.12-6.69-10.36 2.43-17.68 8.7-21.17 18.11-6.53 17.62-0.48 35.83 15.06 45.31 6.41 3.9 22.55 9.47 22.55 9.47 4.47 1.55 24.93 7.58 30.42 9.67 6.53 2.5 7.17 8.6 6.56 13.27-0.7 5.37-3.82 8.49-9.55 9.53a68.32 68.32 0 0 1-13.05 1.32c-13.6-0.24-22.13-2.69-27.44-7-12.41-10.18-8.39-27-8.39-27l-24.89-2.76-0.43 2.25c-4.36 22.78 5.65 43 25.51 51.64a91.62 91.62 0 0 0 26.37 7.06 94.82 94.82 0 0 0 31.86-2c15.64-3.61 24.6-13.1 26.64-28.23 2.53-18.96 0.05-25.96-18.05-38.28z"/>
 <path class="cls-1" transform="translate(393.79 1547.4) rotate(-83.69)" d="m979.31 540.37h163.21v26.93h-163.21z" fill="#fffbdb"/>
 <path class="cls-1" d="m1306.8 562.16a8.38 8.38 0 0 1-0.55 0.82l9.21-28.09-29.45-3.26-14 127.11 27.29 3 0.64-5.81c0.23-2.1 0.44-4 0.66-6 0.67-5.83 1.3-11.66 1.93-17.49 1.41-13.13 2.88-26.7 4.73-40 2.57-18.73 13.75-25.44 32.75-29.44a33 33 0 0 1 16.22 1.1l2.68-24.22-2.25-0.43c-21.49-4.08-39.21 3.98-49.86 22.71z"/>
 <path class="cls-1" transform="translate(500.96 1543.5) rotate(-83.69)" d="m1098.2 478.69h28.25v26.67h-28.25z" fill="#fffbdb"/>
 <path class="cls-1" transform="translate(409.73 1609.4) rotate(-83.69)" d="m1039.4 562.47h128.22v26.87h-128.22z" fill="#fffbdb"/>
 <path class="cls-1" d="M1209.79,516.51l3.51.35c1.5.15,3.06.3,4.71.48l3,.33s-5.73-41.47-5.76-41.2-13.48-1.7-18.68-2.24l-6.35-.67-11.41-1.27S1195,514.87,1209.79,516.51Z"/>
 <path class="cls-1" d="M522.77,396.56A44.28,44.28,0,0,0,494.21,413a39.9,39.9,0,0,0-8.08,30.8c3.69,24.29,24.77,40.56,48,37.05,1.24-.18,2.46-.41,3.67-.69,11.44-2.59,21.74-9,28.07-17.66,5.12-7,7.28-15,6.1-22.48l-.26-1.68-1.66.38c-.9.2-1.78.42-2.67.64-2,.5-12.65,4-13.55,8.71-1.86,9.79-12.59,17.53-24.43,17.63-11.16.09-19.83-6.31-23-16.8l64.49-14.62-.21-1.45c-1.76-12.24-7.57-22.57-16.34-29.09C545.73,397.33,534.52,394.79,522.77,396.56Zm-18.49,36.85c-.74-8.25,7.13-17.94,17.16-20.63,11.52-3.1,21.92,1.21,26.45,10.75Z"/>
 <path class="cls-1" d="m403.24 405.53 16.76-3.79 18.55 81.83 47.36-10.73 3.84 17-64.11 14.53z"/>
 <path class="cls-1" d="M636,411.32a95.57,95.57,0,0,0-14.91-.69c-2.06,0-4.19,0-6.27,0-1.92,0-3.87,0-5.76.08-4.14.13-8,.25-11.73-.62a7.67,7.67,0,0,1-6-5.81,6.28,6.28,0,0,1,2.55-6.44,30.67,30.67,0,0,1,22.81-5.56c4.95.65,7.94,3.86,10,10.75l.43,1.43,16.7-3.79-.24-1.47c-2.09-12.84-11.44-21.37-24.41-22.27a59.14,59.14,0,0,0-31.71,6.77c-9.64,5-14,12-12.92,20.71,1.38,11.3,8,19.05,18.07,21.27,5.21,1.15,10.67,1.14,15.95,1.12h.21c2.94,0,5.91-.22,8.77-.42,3.19-.23,6.49-.46,9.7-.41,4.92.08,7.84,2.46,8.69,7.06.74,4.07-1.25,7.08-5.91,9a86.54,86.54,0,0,1-13.49,4.11c-18.71,4.24-20.41-15.17-20.41-15.17l-16.39,3.71.27,1.5C582.69,451,592.23,460.65,605.5,462a57.78,57.78,0,0,0,18.48-1.1,59.54,59.54,0,0,0,20.22-8.91c7.73-5.24,10.77-13,8.81-22.36C650.76,418.83,645,412.69,636,411.32Z"/>
 <path class="cls-1" d="M949.64,480.93c-11-15.55-28.56-21.57-48.21-16.56-18.6,4.75-29,16.7-31.87,36.52a9.91,9.91,0,0,1-.63,2.1,7.93,7.93,0,0,1-1.88-1.71c-11.58-16.68-27.23-22.93-46.51-18.58h0c-19.37,4.39-30.3,16.5-33.42,37a4.64,4.64,0,0,1-.11.51l-2.54-28.92-27,6.13,28.35,125.07,26.8-6.07L812,614c-1-4.42-2-8.77-3-13.08-2.3-10-4.47-19.42-6.5-29.05q-.68-3.14-1.36-6.28c-1.9-8.72-3.87-17.74-4.73-26.64-1.56-16.3,8-28.37,24.88-31.56,14.05-2.64,22.41,3.66,27.13,20.41,4.25,15.13,7.84,30.76,11.31,45.86,1.49,6.48,3,13.18,4.6,19.76q.66,2.77,1.27,5.54l1.12,5,28.53-6.47L894,592c-.46-2-.89-3.89-1.31-5.77-1.3-5.86-2.64-11.72-4-17.57-3.13-13.8-6.38-28.06-9.22-42.14-2.63-13,0-22.92,8.21-30.2s17.72-10.17,26-7.74,14.51,9.61,17.49,20.23c4.22,15,7.69,30.56,11,45.58,1.48,6.6,3,13.42,4.57,20.12.44,1.89.86,3.78,1.28,5.62l1.12,5,28-6.34-.54-2.42q-2.4-10.59-4.73-21.07c-4.35-19.44-8.45-37.8-13.08-56.48C957.23,492.26,953.29,486.1,949.64,480.93Z"/>
 <path class="cls-1" d="M713.05,516.08c-4.09,5.8-7.06,12.45-10.2,19.5q-.45,1-.9,2l-2.42-27L672.4,516.7l28.29,124.82,26.92-6.1-.55-2.42c-.27-1.19-.54-2.34-.8-3.47-.54-2.35-1-4.57-1.53-6.81-1.26-6-2.62-12.11-3.93-18-3.09-13.91-6.29-28.3-8.53-42.55-2.35-15,4.69-26.67,19.82-32.94,3.29-1.36,6.62-2.58,10.16-3.87,1.66-.61,3.35-1.23,5.07-1.88l2-.76L744.2,500l-2.37.48C732.17,502.45,720.19,506,713.05,516.08Z"/>
 <path class="cls-1" transform="translate(-88.1 232.21) rotate(-12.77)" d="m980.29 445.73h26.67v128.1h-26.67z" fill="#fffbdb"/>
 <path class="cls-1" transform="translate(-70.33 226.04) rotate(-12.77)" d="m961.59 413.16h26.67v28.25h-26.67z" fill="#fffbdb"/>
</svg>
