<?xml version="1.0" encoding="UTF-8" standalone="no"?>
<svg
   id="Calque_12"
   data-name="Calque 12"
   viewBox="0 0 1920 1080"
   version="1.1"
   xmlns="http://www.w3.org/2000/svg"
   xmlns:svg="http://www.w3.org/2000/svg">
  <defs
     id="defs1">
    <style
       id="style1">.cls-1{fill:#fffbdb;}.cls-2{fill:#d62828;}</style>
  </defs>
  <polygon
     points="1035.17 399.6 1029.42 451.6 1009.63 364.28 678.22 439.38 648.85 309.82 365.84 373.95 378.32 429.06 230.54 412.71 195.45 729.99 704.35 786.28 713.3 705.43 1008.75 638.48 1000.08 716.88 1654.9 789.31 1690 472.04 1035.17 399.6"
     id="polygon1" />
  <path
     class="cls-1"
     d="M458.14,546.53h-.09c-19.61-2.15-37,2.27-50.31,12.78s-21.48,26.29-23.59,45.62c-4.37,39.88,19.21,68.55,60.07,73.07h.08c19.56,2.15,36.9-2.29,50.15-12.84s21.39-26.4,23.51-45.81C522.22,580.21,498.19,551,458.14,546.53ZM446.22,653.8c-23.73-2.62-36.76-20.12-34-45.68,1.35-12.55,6.12-22.69,13.78-29.34s17.74-9.44,29.29-8.19l.13,0c23.78,2.63,37,20.07,34.42,45.54-1.31,13.18-6.31,23.63-14.46,30.23-7.55,6.12-17.62,8.69-29.1,7.43Z"
     id="path1" />
  <polygon
     class="cls-1"
     points="268.82 656.51 295.99 659.52 303.34 593.14 364.33 599.88 367.43 571.86 307.27 565.21 311.72 525.03 396.81 534.45 399.77 507.71 286.66 495.19 268.82 656.51"
     id="polygon2" />
  <path
     class="cls-1"
     d="M631.82,573.43c-.24,2.09-.45,4-.67,6q-1,9-2,18.05c-1.45,13.49-2.95,27.44-4.84,41.09-2.79,20.26-16.8,31.16-37.45,29.14-20.81-2-29.34-12.67-27.78-34.51,1-14,2.65-28.17,4.24-41.89.75-6.45,1.53-13.12,2.22-19.69.21-2,.32-3.91.44-6,0-.94.1-1.89.17-2.86l.15-2.36-27.38-3-.27,2.46q-1,9.42-2.09,18.65c-1.81,16.15-3.52,31.39-5.09,47a109.84,109.84,0,0,0-.45,20.51c2,23.26,15.83,39.31,37.9,44a80.17,80.17,0,0,0,7.95,1.31c21.31,2.35,37.11-5.69,48.15-24.45.11-.17.22-.34.35-.52l-7.1,28.84,27.7,3.07L660.09,571l-27.67-3.06Z"
     id="path2" />
  <path
     class="cls-1"
     d="M1210.81,521.38a69,69,0,0,0-50.47,9.62,62.31,62.31,0,0,0-27.62,41.28c-6.93,37.68,15.83,72.41,51.83,79.08q2.87.52,5.76.85c18.17,2,36.65-2.22,50.37-11.72,11.1-7.68,18.36-18.34,20.46-30l.46-2.61-2.63-.29c-1.42-.16-2.85-.29-4.27-.41-3.15-.28-20.67-.57-24.4,5.93-7.74,13.47-27.5,19.41-45,13.52-16.49-5.56-26-19.4-25.3-36.48l102.51,11.34.43-2.24c3.64-18.94.36-37.13-9.26-51.22C1244.26,534.21,1229,524.75,1210.81,521.38Zm-46,44.88c3.12-12.53,19.66-22.8,35.82-21.66,18.56,1.31,31.68,13,33.5,29.33Z"
     id="path3" />
  <path
     class="cls-1"
     d="M1432.45,545.9a69,69,0,0,0-50.46,9.61,62.32,62.32,0,0,0-27.62,41.29c-6.94,37.68,15.83,72.41,51.82,79.08q2.88.52,5.76.85c18.18,2,36.65-2.23,50.38-11.72,11.1-7.68,18.36-18.35,20.45-30l.47-2.6-2.63-.3c-1.42-.15-2.85-.28-4.27-.4-3.15-.28-20.67-.58-24.41,5.93-7.73,13.47-27.5,19.41-45,13.52-16.49-5.56-26-19.4-25.3-36.48L1484.14,626l.44-2.25c3.64-18.94.35-37.12-9.26-51.21C1465.9,558.73,1450.68,549.27,1432.45,545.9Zm-46,44.88c3.12-12.53,19.65-22.81,35.82-21.66,18.55,1.31,31.68,13,33.5,29.33Z"
     id="path4" />
  <path
     class="cls-1"
     d="M1589.05,623.68c-8.56-5.83-19.72-4.07-53.9-19.79-4.48-2.28-6.35-7.28-5-13.36,1-4.59,4.29-7,10.31-7.68a73.21,73.21,0,0,1,17.79,0c18,2.53,22.81,7.61,24.4,25.9l.18,2,25.37,2.81.48-2.18c4-18-4.09-35-20.51-43.37-18.82-9.56-39.38-11.81-61.12-6.69-10.36,2.43-17.68,8.7-21.17,18.11-6.53,17.62-.48,35.83,15.06,45.31,6.41,3.9,22.55,9.47,22.55,9.47,4.47,1.55,24.93,7.58,30.42,9.67,6.53,2.5,7.17,8.6,6.56,13.27-.7,5.37-3.82,8.49-9.55,9.53a68.32,68.32,0,0,1-13.05,1.32c-13.6-.24-22.13-2.69-27.44-7-12.41-10.18-8.39-27-8.39-27l-24.89-2.76-.43,2.25c-4.36,22.78,5.65,43,25.51,51.64a91.62,91.62,0,0,0,26.37,7.06,94.82,94.82,0,0,0,31.86-2c15.64-3.61,24.6-13.1,26.64-28.23C1609.63,643,1607.15,636,1589.05,623.68Z"
     id="path5" />
  <rect
     class="cls-1"
     x="979.31"
     y="540.37"
     width="163.21"
     height="26.93"
     transform="translate(393.79 1547.43) rotate(-83.69)"
     id="rect5" />
  <path
     class="cls-1"
     d="M1306.79,562.16a8.38,8.38,0,0,1-.55.82l9.21-28.09L1286,531.63,1272,658.74l27.29,3,.64-5.81c.23-2.1.44-4,.66-6,.67-5.83,1.3-11.66,1.93-17.49,1.41-13.13,2.88-26.7,4.73-40C1309.82,573.71,1321,567,1340,563a33,33,0,0,1,16.22,1.1l2.68-24.22-2.25-.43C1335.16,535.37,1317.44,543.43,1306.79,562.16Z"
     id="path6" />
  <rect
     class="cls-1"
     x="1098.17"
     y="478.69"
     width="28.25"
     height="26.67"
     transform="translate(500.96 1543.48) rotate(-83.69)"
     id="rect6" />
  <rect
     class="cls-1"
     x="1039.35"
     y="562.47"
     width="128.22"
     height="26.87"
     transform="translate(409.73 1609.36) rotate(-83.69)"
     id="rect7" />
  <path
     class="cls-1"
     d="M1209.79,516.51l3.51.35c1.5.15,3.06.3,4.71.48l3,.33s-5.73-41.47-5.76-41.2-13.48-1.7-18.68-2.24l-6.35-.67-11.41-1.27S1195,514.87,1209.79,516.51Z"
     id="path7" />
  <path
     class="cls-1"
     d="M522.77,396.56A44.28,44.28,0,0,0,494.21,413a39.9,39.9,0,0,0-8.08,30.8c3.69,24.29,24.77,40.56,48,37.05,1.24-.18,2.46-.41,3.67-.69,11.44-2.59,21.74-9,28.07-17.66,5.12-7,7.28-15,6.1-22.48l-.26-1.68-1.66.38c-.9.2-1.78.42-2.67.64-2,.5-12.65,4-13.55,8.71-1.86,9.79-12.59,17.53-24.43,17.63-11.16.09-19.83-6.31-23-16.8l64.49-14.62-.21-1.45c-1.76-12.24-7.57-22.57-16.34-29.09C545.73,397.33,534.52,394.79,522.77,396.56Zm-18.49,36.85c-.74-8.25,7.13-17.94,17.16-20.63,11.52-3.1,21.92,1.21,26.45,10.75Z"
     id="path8" />
  <path
     class="cls-1"
     d="M403.24,405.53,420,401.74l18.55,81.83,47.36-10.73,3.84,17-64.11,14.53Z"
     id="path9" />
  <path
     class="cls-1"
     d="M636,411.32a95.57,95.57,0,0,0-14.91-.69c-2.06,0-4.19,0-6.27,0-1.92,0-3.87,0-5.76.08-4.14.13-8,.25-11.73-.62a7.67,7.67,0,0,1-6-5.81,6.28,6.28,0,0,1,2.55-6.44,30.67,30.67,0,0,1,22.81-5.56c4.95.65,7.94,3.86,10,10.75l.43,1.43,16.7-3.79-.24-1.47c-2.09-12.84-11.44-21.37-24.41-22.27a59.14,59.14,0,0,0-31.71,6.77c-9.64,5-14,12-12.92,20.71,1.38,11.3,8,19.05,18.07,21.27,5.21,1.15,10.67,1.14,15.95,1.12h.21c2.94,0,5.91-.22,8.77-.42,3.19-.23,6.49-.46,9.7-.41,4.92.08,7.84,2.46,8.69,7.06.74,4.07-1.25,7.08-5.91,9a86.54,86.54,0,0,1-13.49,4.11c-18.71,4.24-20.41-15.17-20.41-15.17l-16.39,3.71.27,1.5C582.69,451,592.23,460.65,605.5,462a57.78,57.78,0,0,0,18.48-1.1,59.54,59.54,0,0,0,20.22-8.91c7.73-5.24,10.77-13,8.81-22.36C650.76,418.83,645,412.69,636,411.32Z"
     id="path10" />
  <path
     class="cls-1"
     d="M949.64,480.93c-11-15.55-28.56-21.57-48.21-16.56-18.6,4.75-29,16.7-31.87,36.52a9.91,9.91,0,0,1-.63,2.1,7.93,7.93,0,0,1-1.88-1.71c-11.58-16.68-27.23-22.93-46.51-18.58h0c-19.37,4.39-30.3,16.5-33.42,37a4.64,4.64,0,0,1-.11.51l-2.54-28.92-27,6.13,28.35,125.07,26.8-6.07L812,614c-1-4.42-2-8.77-3-13.08-2.3-10-4.47-19.42-6.5-29.05q-.68-3.14-1.36-6.28c-1.9-8.72-3.87-17.74-4.73-26.64-1.56-16.3,8-28.37,24.88-31.56,14.05-2.64,22.41,3.66,27.13,20.41,4.25,15.13,7.84,30.76,11.31,45.86,1.49,6.48,3,13.18,4.6,19.76q.66,2.77,1.27,5.54l1.12,5,28.53-6.47L894,592c-.46-2-.89-3.89-1.31-5.77-1.3-5.86-2.64-11.72-4-17.57-3.13-13.8-6.38-28.06-9.22-42.14-2.63-13,0-22.92,8.21-30.2s17.72-10.17,26-7.74,14.51,9.61,17.49,20.23c4.22,15,7.69,30.56,11,45.58,1.48,6.6,3,13.42,4.57,20.12.44,1.89.86,3.78,1.28,5.62l1.12,5,28-6.34-.54-2.42q-2.4-10.59-4.73-21.07c-4.35-19.44-8.45-37.8-13.08-56.48C957.23,492.26,953.29,486.1,949.64,480.93Z"
     id="path11" />
  <path
     class="cls-1"
     d="M713.05,516.08c-4.09,5.8-7.06,12.45-10.2,19.5q-.45,1-.9,2l-2.42-27L672.4,516.7l28.29,124.82,26.92-6.1-.55-2.42c-.27-1.19-.54-2.34-.8-3.47-.54-2.35-1-4.57-1.53-6.81-1.26-6-2.62-12.11-3.93-18-3.09-13.91-6.29-28.3-8.53-42.55-2.35-15,4.69-26.67,19.82-32.94,3.29-1.36,6.62-2.58,10.16-3.87,1.66-.61,3.35-1.23,5.07-1.88l2-.76L744.2,500l-2.37.48C732.17,502.45,720.19,506,713.05,516.08Z"
     id="path12" />
  <rect
     class="cls-1"
     x="980.29"
     y="445.73"
     width="26.67"
     height="128.1"
     transform="translate(-88.1 232.21) rotate(-12.77)"
     id="rect12" />
  <rect
     class="cls-1"
     x="961.59"
     y="413.16"
     width="26.67"
     height="28.25"
     transform="translate(-70.33 226.04) rotate(-12.77)"
     id="rect13" />
  <path
     class="cls-2"
     d="M1202.48,278.43c-.22-12.31,7.87-19.38,20.37-20.32,28.53-2.16,50.92,7.58,64.92,33.74,7.32,13.65,13.84,27.47,14.6,43.28.39,8.16-3.18,13.12-11.68,13.46-25.69,1.05-49.34-5.18-69.67-21.29C1207.13,314.27,1202.68,289.9,1202.48,278.43Z"
     id="path13" />
  <path
     class="cls-2"
     d="M987.09,230.45c6.11-14,15.38-21,29.22-21.61,5.31-.22,11.09.94,15.82-.8,5.67-2.09,12.28-5.5,15.2-10.32,4.24-7,9-11.39,16.91-12.54,5.26-.77,10.61-2.68,15.74-2.21,11.6,1.06,18.12-6.27,24.7-13.53,1.41-1.55,1.21-4.87,1.18-7.37-.11-9.16-.66-18.31-.64-27.47,0-6.83,2.29-12.55,8.76-16.31s8.49-10.39,7.85-17.61c-.51-5.87-1.83-11.69-2.21-17.56-.85-13.21,4.31-23.42,17.92-31.76-9.53,20-8,38.36-2.82,56.91.6,2.13-.9,5.5-2.49,7.45-2.58,3.17-5.93,5.75-9.12,8.37-11.12,9.13-11.32,20.69-6.62,32.73.94,2.4,5.33,4,8.44,4.88,5.83,1.61,12.41,1.3,17.7,3.82,7.45,3.54,7.95,9.66,2.73,15.95q-15.3,18.41-30.62,36.78c-7.48,9-15.56,8.75-20.61-2-3.1-6.62-3.41-14.54-5.08-22.42-12.46-4.12-26.42-2.75-34.22,12.87-5.28,10.54-12.16,14.59-24.18,12.62-7-1.13-14.71.73-21.77,2.55S995.36,227.11,987.09,230.45Z"
     id="path14" />
  <path
     d="M616.83,189.34l8.49-10.59c25.66,16.14,48.19,6.68,70-8.45,3.63-2.52,7.62-4.5,12.7-7.47,16.73,25.54,40.12,27.34,68.76,17.32-6-4.45-10.43-8.08-15.21-11.08-4.28-2.69-5.59-5.73-5-10.92,3.16-26.13-1.56-30.54-27.9-30.87-7.41-.09-14.95-4-22.09-7-6.19-2.58-11.91-6.3-18.86-10.08,7-4.71,13.27-3.46,18,.33,10.65,8.6,22.8,10.29,35.78,10.56,19.21.38,22.17,3.15,25.71,21.88,4,21,4,21,16.05,30.15,6.55-6.22,7-14,4.56-21.75-3.5-11-7.77-21.7-12.22-32.32-1.88-4.48-2.23-7.58,2.39-10.4,2.74-1.67,4.84-4.35,7.46-6.27,11.66-8.58,16.13-20,13.74-34.19a40.48,40.48,0,0,1-.21-5.34c11.18,3.06,15.28,19.15,7.53,28.8-3.34,4.15-6.81,8.22-10.53,12-5.87,6-7.47,13.1-6.79,21.18,1,11.67,3.87,13.74,15.71,12,3.24-.47,7.72,0,10,2a173.94,173.94,0,0,1,20.64,20.34c4,4.77,5.24,10.68,1.87,17.36-2.9,5.76.51,10.26,6.35,12.36,8.86,3.2,17.45,2.7,25.44-2.68,3.43-2.31,7.27-4.31,10-7.3,7.88-8.55,17.63-5.12,26.63-4.15,3.23.34,6,4.72,10.58,8.57-4.46,1-5.3,1.48-6,1.32-18.18-4.32-32.66,1.94-44,16-4.43,5.49-8.15,5.72-14.15,2.27A252,252,0,0,0,823.55,189c-7.7-3.22-15.54-2.54-23.74,2.79,5.18,6.7,8.58,14,18.15,15.48,6.38,1,12.59,3.21,18.8,5.14,8.7,2.71,13.19,8.59,12.75,17.9-.21,4.43-.14,8.91-.7,13.3-1.31,10.18,1.26,19.27,6.65,27.87,3.74,6,5.48,12.28-.21,19.92-5.9-15.84-16-28.52-13.92-46.49,2.44-21.61-5.57-28.45-27.45-25.77-6.88.84-9.55-1.39-12.09-6.81-2.23-4.75-5.35-9.08-8.15-13.73-16,17.27-12,44.34,10.15,68.82-5.36,7.38-10.54,15.2-16.42,22.44-13,16-15.49,33.4-8.17,52.37,3.49,9-4.72,8.63-9.35,13.81-4.18-21.11-9.67-39.83-1.46-59.26a329.19,329.19,0,0,0,12.1-33.34,19.6,19.6,0,0,0-1-13c-4.7-9.77-8.46-19.44-7.53-30.56.59-7-11.53-21.11-18.53-21.16-11.77-.09-21.69-4.55-31.47-10.58-3.21-2-8.34-2.44-12.14-1.58-11.81,2.66-23.46,6.08-35.06,9.6C654.74,202.25,636.51,195.07,616.83,189.34Z"
     id="path15" />
  <path
     d="M767.1,233.18c-2.84,18.93-11.38,37.1-33,46.66-15,6.61-30.18,12.19-46.88,10.89-9.93-.78-12.68-3.71-11.9-13.63,1.77-22.51,9.92-42.91,25.85-58.78,13-12.94,30.31-16.74,48.41-14C763,206.3,768.49,215,767.1,233.18Z"
     id="path16" />
  <path
     d="M843.68,109.74c5.82-12.62,3.55-22-6.78-32.43-4.33-4.39-13.69-5.9-11.42-14.94,4.33-17.22,3.65-33.89-4.63-50.53,12.63,4.81,19.2,16.44,17.55,29.63-.58,4.68-2.23,9.65-1.26,14,1.21,5.41,3.34,12.11,7.39,15.06,6.8,4.94,10,10.48,10,18.43,0,5.31,1.08,10.83,0,15.89-2.22,10.38,5.16,16.06,10.05,22.9,1,1.43,4.21,1.57,6.46,1.81q11,1.19,22.08,2c8.26.61,14,4,18.55,11.54,2.45,4.06,8.54,6.75,13.53,8.2,4.61,1.34,9.95.09,15,.19,13.27.27,23,6.1,29.54,19.46a47.76,47.76,0,0,1-5.52-2.08,59.79,59.79,0,0,0-42.07-6.21c-6.6,1.36-10.62-.54-13.74-6.24a55.1,55.1,0,0,0-6.81-9.27c-7.41-8.6-18.52-11.38-28.72-6.84-1.78.79-3,3.69-3.69,5.87-1.37,4.46-1.38,9.48-3.38,13.57C861,169.51,853.92,170,846.63,162c-9.55-10.49-19.26-20.83-29-31.18-7.47-8-6.33-15.34,4.12-18.76C828.21,110,835.5,110.52,843.68,109.74Z"
     id="path17" />
  <path
     d="M811.59,1066.49c-5.42-6.46-6.66-11.27.7-16.61,14.17-10.3,20.68-24.51,19.85-42.23-.5-10.59-.1-21.23-.1-33.3,29.74-2.18,41.35-22.82,46.79-52.5-7.15,3.46-12.45,5.68-17.39,8.53-4.43,2.56-8.2,2.89-11.86-1a13,13,0,0,0-2.1-1.63c-17.32-12.33-26.62-11-35.63,8.26-7.72,16.47-23.65,20.87-37,31.51-.85-8.74,3.2-13.33,8.61-15.57,12-5,19-14.28,25.3-25,11.16-19.15,13.58-20.16,34.87-13,10.66,3.58,20.76,6.41,31.51-.78-2-8.94-8.82-12.88-16.77-14.36-13.34-2.49-26.87-4-40.32-5.84-2.75-9.51-3.64-20.32-8.83-28.33s-14.57-12.89-22-19.08c6.68-6.81,22.68-2.61,27.43,8.8a154.61,154.61,0,0,1,5.61,15c3.11,10.38,11.15,14.89,20.56,17.63,7.06,2.06,11-.85,12.82-8.18.91-3.6,3.54-8.33,6.59-9.54,9.47-3.76,19.38-7,29.42-8.5,4.17-.62,10,2.8,13.46,6.06,5.68,5.3,10.52,4.92,15.43.14,7.7-7.51,10.81-16.66,8.76-27.5-1.92-10.12-3.66-19.77,4.11-29.24,4.44-5.42,8.1-8,15.21-6-.56,1.34-.8,2.86-1.67,3.82-11.86,13.26-12.79,28.27-6.26,43.88,3.21,7.67,1.16,11.43-5.65,15.45a193.83,193.83,0,0,0-24.4,17.67c-6.64,5.48-10.1,12.81-8.72,22.44,9.66-.83,17.59-3,24.35-10.64,20-22.73,21.06-22.16,47.2-6.71,6.68,3.94,15.52,4.83,23.52,5.75,7.18.82,14.11.71,19,10.6-16.41-3.83-32.62,1.76-45.91-9.65a4.15,4.15,0,0,0-.73-.51c-20.05-11.87-28.27-9.4-37.15,12.17-2.22,5.39-4.85,7.13-10.41,6.83s-11.13.53-16.82.88c6.19,21.19,32.26,30.74,65.23,23.89,4.51,9.28,9.41,18.65,13.68,28.3,7.26,16.4,20.28,24.77,37.29,28.13,10.37,2,10.35,2.16,9.11,14.41-18-5.12-36.08-9.17-49.13-24.07-8.38-9.58-16.57-19.34-25.4-28.49-2.71-2.8-7.22-5.3-11-5.38-12.09-.27-23.47-1.82-33.66-9.06-3.93-2.79-22.69,2.92-25.17,7.49-5.6,10.31-14.12,17.12-24.19,22.76-3.31,1.85-6.2,6.08-7.34,9.82a171.8,171.8,0,0,0-6,26.78C843.24,1034.35,828.64,1050.61,811.59,1066.49Z"
     id="path18" />
  <path
     d="M945.88,1009.06c-.64,13.28-3.39,30.08-12.76,45.12-3.59,5.75-8.09,7.87-15,4.79-31.07-13.9-49.72-55.65-39-87.84,7.78-23.32,24.47-28.5,43.64-13.56C939.12,970.29,946,984.38,945.88,1009.06Z"
     id="path19" />
  <path
     d="M751.75,802.77c10.83-7.77,21.94-8.1,32.63-1.22,4,2.56,7.48,6.68,11.77,7.71,6.16,1.48,13.36,2.42,19.16.57,6.35-2,11.71-3.23,17.72-.12,5.5,2.86,11.92,4.6,16.45,8.53,8,6.9,16.07,2.66,24.11,2,1.7-.14,3.42-2.86,4.69-4.7,4.2-6.07,8.19-12.3,12.28-18.45,4.68-7,10.39-10.95,19.68-11.2,4.79-.13,10.21-5.09,13.91-9.17s5.19-9.91,8.22-14.61c6.39-9.88,15.4-14.91,30-13.77-17.54,10.4-26.64,24.77-32.52,41.63-.65,1.87-3.56,3.59-5.74,4.14-4.28,1.07-8.8,1.1-13.17,1.86-12.62,2.19-20,9.39-21.9,22-.32,2.11,1.62,5.07,3.33,6.86,3,3.16,7.32,5.2,9.89,8.61,6.79,9,4,16-6.78,18.7q-20.19,5.05-40.29,10.43c-11.35,3-17.65-2-15.19-13.49,1.35-6.36,5.42-12.14,8.5-18.67-7.32-10.76-17.67-14.48-30.29-10.21-3.08,1-6.35,1.81-9.12,3.42-5.48,3.16-9.39,2-14-2.24-11-10-23.76-16.45-38.94-17.32A20.69,20.69,0,0,1,751.75,802.77Z"
     id="path20" />
  <path
     d="M851.5,952.07q-14.76-2.48-29.15-6a52.61,52.61,0,0,1-9,11.4q6.58,1.69,13.23,3.19l4.41-.33C839.06,959.76,845.9,957.72,851.5,952.07Z"
     id="path21" />
  <path
     d="M742.44,159.2c-4.53,2.08-9,4.21-13.48,6.45a28.51,28.51,0,0,0,16.14,6.06A24,24,0,0,1,742.44,159.2Z"
     id="path22" />
  <path
     d="M922.39,133.8A409.67,409.67,0,0,1,1085,168.41c1.87-.83,3.85-2.57,6.81-5.73v-.46c0-1.82-.06-3.63-.11-5.46a424,424,0,0,0-172-36.09q-6.09,0-12.15.19A35.72,35.72,0,0,1,922.39,133.8Z"
     id="path23" />
  <path
     d="M1325.52,418.54a419.38,419.38,0,0,0-23.17-58.48,28.86,28.86,0,0,1-11.09,2.56c-.84,0-1.67,0-2.51.05a408.61,408.61,0,0,1,22.3,54.27Z"
     id="path24" />
  <path
     d="M1271.45,760.07c-60.84,99.46-162.63,171.27-281.78,191.72,1.73,3.55,3.43,7.16,5.05,10.82.23.53.48,1,.73,1.55,84.74-15.15,162.74-55.66,224.89-117.81a427.82,427.82,0,0,0,65.78-84.65Z"
     id="path25" />
  <path
     d="M585.49,786.31l-17.64-1.95a429.8,429.8,0,0,0,51.32,62,423.68,423.68,0,0,0,150.9,97.49,29.37,29.37,0,0,1,8-4.9,27.61,27.61,0,0,0,6.61-3.94A414,414,0,0,1,585.49,786.31Z"
     id="path26" />
  <path
     d="M580.85,311.79A415.77,415.77,0,0,1,684.08,208l-5.21,1.57a68.64,68.64,0,0,1-23,2.87A429.38,429.38,0,0,0,562,316.07Z"
     id="path27" />
  <path
     class="cls-2"
     d="M1100.84,267.61c13.51-7.12,26.12-14.23,39.16-20.46,8.16-3.91,16.77-4.83,24.52,1.88-9.27,14.61-9.27,14.61-30.33,21.12-18.51,5.73-21.59,9.85-19.58,28.69,1.53,14.34,2,28.15-6.16,41.17-3.29,5.23-3.83,11.67,2.44,18,3.92-10.09,7.91-19.23,11-28.67,1.57-4.85,2.68-10.42,2-15.37-4.2-29.46.31-34.86,29.68-35.22,2.91,0,6.69-2.73,8.49-5.3,3.74-5.34,6.41-11.43,10.42-18.88,15,29,16.12,54.06-8.55,75.17,27,35.3,36.62,51.07,34.52,74.76l11,1.22c1-12.25.06-29.61-3.91-40.23-5.18-13.84-11.75-27.16-16.93-41-1.45-3.85-.93-8.87,0-13.08,2-9.42,7.88-19.1,6.63-27.88-2-13.71,8.5-19.09,13.5-28.06.48-.86,2.62-1.1,4-1.13,12.94-.25,24-5,34.36-12.64,3.41-2.5,9.29-3.34,13.62-2.58,15.14,2.67,30,6.82,45.14,9.56,18.62,3.37,35-4.82,52.16-10.32-6.34-11.57-6.45-11.83-16.56-7.17-17.63,8.13-34.71,8.42-51.74-1.75-9.3-5.55-19-10.43-28.35-15.52-21.07,26.4-51.89,35.15-71.56,20.26,5-3.83,9.71-7.81,14.8-11.2,4.48-3,6.06-5.9,4.6-11.7-6.22-24.67-.44-33.63,24.87-34,18.86-.27,29.76-13.77,46.41-20.72-9.64-5.55-16.1-2.3-21.91,2.42a45.45,45.45,0,0,1-29.39,10.63,95,95,0,0,0-13.21,1.3c-11.38,1.67-15.45,5.61-17.36,16.78-1,5.83-2.43,11.71-2.44,17.57,0,10.82-6.93,16.77-14.89,24-15.83-25.17,4.12-45.15,7.51-67.45-19-11.53-34.37-25.65-28.73-52l-3.25-.45c-2.68,3.21-7.6,6.42-7.61,9.64,0,9.34-2.08,19.72,7.43,26.81,3.5,2.61,6.23,6.29,9.18,9.61,6.27,7.07,8.56,15.41,7.46,24.7s-5.81,12.31-15.11,10.77c-3.72-.62-8.43-.11-11.62,1.74-11.1,6.44-18.7,16.36-23.27,28.2-1.31,3.4-.77,8.18.48,11.79,2.83,8.15,1.64,12.54-6.33,15.22-9.5,3.19-19,4.55-27.87-2.39a159.7,159.7,0,0,0-14.76-9.84c-10.4-6.41-26.71-.29-30.73,13.24C1069.48,237,1085.82,251,1100.84,267.61Z"
     id="path28" />
</svg>
